<svg width="220" height="133" viewBox="0 0 220 133" fill="none" xmlns="http://www.w3.org/2000/svg">
<g clip-path="url(#clip0)">
<path d="M23.3389 105.253H9.50981L6.36772 113.695H5.22339L15.794 85.4372H17.0741L27.6447 113.695H26.5004L23.3389 105.253ZM9.89773 104.205H22.951L16.434 86.6987L9.89773 104.205ZM63.7866 110.667C63.0754 111.651 61.8275 112.466 60.0432 113.113C58.2587 113.76 56.2933 114.083 54.1469 114.083C52.0521 114.083 50.1837 113.572 48.5416 112.55C46.8994 111.528 45.6129 110.085 44.6818 108.222C43.7638 106.359 43.2919 104.25 43.2659 101.895V97.0431C43.2659 94.7272 43.712 92.6506 44.6042 90.8132C45.4965 88.9759 46.7508 87.5593 48.367 86.563C49.9832 85.5537 51.8001 85.0491 53.8172 85.0491C56.6231 85.0491 58.9053 85.7673 60.6638 87.2034C62.4352 88.6396 63.4633 90.5998 63.7477 93.084H62.7003C62.3512 90.8326 61.4138 89.1054 59.888 87.902C58.3622 86.6987 56.3386 86.0972 53.8172 86.0972C50.9725 86.0972 48.6773 87.1129 46.9316 89.1441C45.1862 91.1755 44.3133 93.8473 44.3133 97.1596V101.662C44.3133 103.875 44.7206 105.848 45.5353 107.582C46.3627 109.315 47.52 110.661 49.007 111.618C50.507 112.563 52.2202 113.035 54.1469 113.035C56.0348 113.035 57.7868 112.757 59.403 112.201C61.0194 111.644 62.1314 110.971 62.7391 110.182V101.953H54.1081V100.886H63.7866V110.667ZM93.8187 101.604H84.024V113.695H82.9765V85.4372H91.976C94.8079 85.4372 97.0577 86.1683 98.7258 87.6303C100.407 89.0924 101.247 91.0784 101.247 93.5886C101.247 95.5163 100.646 97.2048 99.4434 98.6541C98.2538 100.09 96.7345 100.983 94.8854 101.332L102.43 113.423V113.695H101.325L93.8187 101.604ZM84.024 100.556H92.9265C95.0988 100.556 96.8509 99.8962 98.1826 98.5764C99.5274 97.2566 100.2 95.594 100.2 93.5886C100.2 91.389 99.4563 89.6553 97.9694 88.3872C96.4952 87.1193 94.4717 86.4853 91.8986 86.4853H84.024V100.556ZM140.977 101.682C140.977 104.127 140.538 106.294 139.658 108.183C138.792 110.059 137.551 111.515 135.934 112.55C134.318 113.572 132.456 114.083 130.348 114.083C127.167 114.083 124.594 112.951 122.629 110.687C120.664 108.423 119.681 105.369 119.681 101.526V97.4506C119.681 95.0183 120.114 92.8575 120.98 90.9685C121.86 89.0794 123.107 87.6239 124.724 86.6018C126.353 85.5667 128.215 85.0491 130.31 85.0491C132.417 85.0491 134.279 85.5667 135.896 86.6018C137.525 87.6239 138.779 89.086 139.658 90.9879C140.538 92.877 140.977 95.0313 140.977 97.4506V101.682ZM139.93 97.412C139.93 93.9962 139.064 91.2596 137.331 89.2023C135.598 87.1323 133.258 86.0972 130.31 86.0972C127.4 86.0972 125.079 87.1257 123.347 89.1829C121.614 91.2273 120.748 94.0156 120.748 97.5477V101.682C120.748 103.933 121.136 105.925 121.911 107.659C122.7 109.38 123.819 110.706 125.267 111.638C126.715 112.569 128.409 113.035 130.348 113.035C133.296 113.035 135.63 112.006 137.35 109.949C139.07 107.892 139.93 105.084 139.93 101.526V97.412ZM160.42 112.647H174.908V113.695H159.353V85.4372H160.42V112.647ZM209.75 85.4372V104.573C209.75 107.562 208.884 109.898 207.151 111.58C205.419 113.249 203.072 114.083 200.11 114.083C197.149 114.083 194.802 113.249 193.07 111.58C191.337 109.898 190.465 107.588 190.451 104.651V85.4372H191.499V104.534C191.499 107.148 192.282 109.218 193.846 110.745C195.423 112.272 197.511 113.035 200.11 113.035C202.71 113.035 204.791 112.272 206.355 110.745C207.92 109.218 208.702 107.142 208.702 104.515V85.4372H209.75Z" fill="#A0BF1D"/>
<path d="M3.23035 130.511C3.18394 130.384 3.15431 130.196 3.14142 129.948C2.97903 130.152 2.77153 130.31 2.51892 130.421C2.26889 130.531 2.00339 130.586 1.72243 130.586C1.32032 130.586 0.994254 130.477 0.744225 130.261C0.496773 130.044 0.373047 129.771 0.373047 129.44C0.373047 129.047 0.541881 128.736 0.87955 128.507C1.2198 128.278 1.69278 128.164 2.29853 128.164H3.13756V127.704C3.13756 127.416 3.04475 127.189 2.85916 127.025C2.67615 126.858 2.40808 126.775 2.05494 126.775C1.73274 126.775 1.46596 126.855 1.25459 127.014C1.04323 127.173 0.937547 127.365 0.937547 127.589L0.473573 127.585C0.473573 127.264 0.628231 126.987 0.937547 126.753C1.24686 126.516 1.62706 126.398 2.07815 126.398C2.5447 126.398 2.91201 126.511 3.18008 126.738C3.45073 126.962 3.58992 127.275 3.59765 127.678V129.589C3.59765 129.98 3.64019 130.272 3.72525 130.466V130.511H3.23035ZM1.77656 130.19C2.08587 130.19 2.36169 130.118 2.60398 129.974C2.84885 129.829 3.02671 129.636 3.13756 129.395V128.507H2.31014C1.84873 128.512 1.48787 128.594 1.22753 128.753C0.967189 128.91 0.837019 129.126 0.837019 129.403C0.837019 129.629 0.923369 129.817 1.09607 129.966C1.27135 130.115 1.49818 130.19 1.77656 130.19ZM6.85753 130.511H6.39355V124.778H6.85753V130.511ZM12.3135 130C12.0352 130.39 11.5905 130.586 10.9796 130.586C10.5337 130.586 10.1947 130.461 9.96274 130.212C9.73076 129.961 9.61219 129.59 9.60703 129.1V126.473H10.0671V129.044C10.0671 129.813 10.3893 130.198 11.0337 130.198C11.7039 130.198 12.1279 129.93 12.3058 129.395V126.473H12.7698V130.511H12.3213L12.3135 130ZM15.295 128.455C15.295 127.823 15.4394 127.322 15.7281 126.954C16.0194 126.583 16.4137 126.398 16.9112 126.398C17.4808 126.398 17.914 126.617 18.2103 127.055L18.2336 126.473H18.6665V130.429C18.6665 130.949 18.5158 131.361 18.2142 131.664C17.9125 131.968 17.5041 132.12 16.9885 132.12C16.6972 132.12 16.4188 132.056 16.1534 131.929C15.8905 131.805 15.683 131.638 15.5309 131.429L15.7899 131.16C16.1173 131.549 16.5065 131.743 16.9576 131.743C17.3443 131.743 17.6459 131.632 17.8623 131.411C18.0788 131.192 18.191 130.887 18.1987 130.496V129.989C17.9023 130.387 17.4705 130.586 16.9034 130.586C16.4188 130.586 16.0297 130.399 15.7358 130.026C15.442 129.653 15.295 129.149 15.295 128.514V128.455ZM15.7629 128.533C15.7629 129.048 15.8699 129.455 16.0839 129.753C16.2977 130.05 16.5994 130.198 16.9885 130.198C17.5581 130.198 17.9616 129.951 18.1987 129.459V127.581C18.0904 127.322 17.9346 127.126 17.7309 126.992C17.5272 126.855 17.2824 126.786 16.9962 126.786C16.6071 126.786 16.3041 126.934 16.0877 127.23C15.8712 127.524 15.7629 127.958 15.7629 128.533ZM24.0685 130C23.7901 130.39 23.3454 130.586 22.7346 130.586C22.2886 130.586 21.9497 130.461 21.7177 130.212C21.4857 129.961 21.3671 129.59 21.362 129.1V126.473H21.8221V129.044C21.8221 129.813 22.1442 130.198 22.7886 130.198C23.4588 130.198 23.8829 129.93 24.0608 129.395V126.473H24.5246V130.511H24.0761L24.0685 130ZM28.8556 130.586C28.4999 130.586 28.1776 130.501 27.889 130.332C27.6029 130.163 27.3799 129.928 27.2201 129.627C27.0603 129.323 26.9803 128.983 26.9803 128.608V128.447C26.9803 128.059 27.0577 127.709 27.2123 127.398C27.3696 127.087 27.5873 126.843 27.8657 126.667C28.1442 126.488 28.4457 126.398 28.7705 126.398C29.2782 126.398 29.6803 126.566 29.9768 126.902C30.2758 127.235 30.4253 127.692 30.4253 128.272V128.522H27.4404V128.608C27.4404 129.065 27.5758 129.447 27.8464 129.753C28.1196 130.057 28.4625 130.209 28.8749 130.209C29.1224 130.209 29.3402 130.165 29.5283 130.078C29.7191 129.991 29.8918 129.852 30.0465 129.66L30.3365 129.873C29.9961 130.348 29.5025 130.586 28.8556 130.586ZM28.7705 126.779C28.4226 126.779 28.1286 126.902 27.889 127.148C27.6518 127.395 27.5075 127.726 27.4559 128.141H29.9653V128.093C29.9523 127.704 29.8376 127.388 29.6211 127.145C29.4046 126.901 29.121 126.779 28.7705 126.779ZM33.3488 130.511H32.8848V124.778H33.3488V130.511ZM39.3581 128.455C39.3581 127.828 39.5026 127.329 39.7913 126.958C40.0825 126.585 40.4769 126.398 40.9745 126.398C41.5389 126.398 41.9693 126.613 42.2658 127.044V124.778H42.7259V130.511H42.2929L42.2736 129.974C41.9771 130.382 41.5414 130.586 40.9667 130.586C40.4846 130.586 40.0953 130.399 39.799 130.026C39.5051 129.65 39.3581 129.144 39.3581 128.507V128.455ZM39.8261 128.533C39.8261 129.048 39.933 129.455 40.147 129.753C40.3609 130.05 40.6625 130.198 41.0517 130.198C41.6214 130.198 42.026 129.955 42.2658 129.47V127.574C42.026 127.049 41.6239 126.786 41.0595 126.786C40.6702 126.786 40.3673 126.934 40.1508 127.23C39.9343 127.524 39.8261 127.958 39.8261 128.533ZM47.0684 130.586C46.7127 130.586 46.3904 130.501 46.1017 130.332C45.8157 130.163 45.5927 129.928 45.4329 129.627C45.2731 129.323 45.1931 128.983 45.1931 128.608V128.447C45.1931 128.059 45.2704 127.709 45.4251 127.398C45.5824 127.087 45.8001 126.843 46.0785 126.667C46.357 126.488 46.6585 126.398 46.9833 126.398C47.491 126.398 47.8931 126.566 48.1896 126.902C48.4886 127.235 48.6381 127.692 48.6381 128.272V128.522H45.6532V128.608C45.6532 129.065 45.7886 129.447 46.0592 129.753C46.3324 130.057 46.6753 130.209 47.0877 130.209C47.3352 130.209 47.553 130.165 47.7411 130.078C47.9318 129.991 48.1046 129.852 48.2593 129.66L48.5493 129.873C48.2089 130.348 47.7153 130.586 47.0684 130.586ZM46.9833 126.779C46.6354 126.779 46.3414 126.902 46.1017 127.148C45.8646 127.395 45.7203 127.726 45.6687 128.141H48.178V128.093C48.1651 127.704 48.0504 127.388 47.8339 127.145C47.6174 126.901 47.3338 126.779 46.9833 126.779ZM54.895 126.473L54.9105 127.13C55.0651 126.886 55.2584 126.703 55.4904 126.581C55.7224 126.459 55.9801 126.398 56.2636 126.398C56.9235 126.398 57.3424 126.659 57.5203 127.182C57.6698 126.931 57.8695 126.738 58.1195 126.603C58.3696 126.467 58.6455 126.398 58.947 126.398C59.844 126.398 60.3015 126.871 60.3196 127.816V130.511H59.8556V127.85C59.853 127.489 59.7718 127.222 59.612 127.048C59.4547 126.873 59.1971 126.786 58.8387 126.786C58.5063 126.791 58.2253 126.896 57.9958 127.1C57.7664 127.301 57.6389 127.548 57.6131 127.839V130.511H57.149V127.816C57.1465 127.471 57.0615 127.213 56.8939 127.044C56.7289 126.872 56.4738 126.786 56.1283 126.786C55.8371 126.786 55.587 126.867 55.3783 127.029C55.1694 127.188 55.0149 127.426 54.9143 127.742V130.511H54.4503V126.473H54.895ZM65.6403 130.511C65.5939 130.384 65.5642 130.196 65.5513 129.948C65.389 130.152 65.1814 130.31 64.9288 130.421C64.6789 130.531 64.4133 130.586 64.1323 130.586C63.7302 130.586 63.4042 130.477 63.1541 130.261C62.9067 130.044 62.783 129.771 62.783 129.44C62.783 129.047 62.9519 128.736 63.2895 128.507C63.6297 128.278 64.1027 128.164 64.7085 128.164H65.5475V127.704C65.5475 127.416 65.4547 127.189 65.2691 127.025C65.086 126.858 64.8179 126.775 64.4649 126.775C64.1426 126.775 63.8759 126.855 63.6645 127.014C63.4531 127.173 63.3475 127.365 63.3475 127.589L62.8834 127.585C62.8834 127.264 63.0382 126.987 63.3475 126.753C63.6568 126.516 64.037 126.398 64.488 126.398C64.9546 126.398 65.3219 126.511 65.59 126.738C65.8606 126.962 65.9998 127.275 66.0076 127.678V129.589C66.0076 129.98 66.05 130.272 66.1352 130.466V130.511H65.6403ZM64.1865 130.19C64.4958 130.19 64.7717 130.118 65.0138 129.974C65.2588 129.829 65.4367 129.636 65.5475 129.395V128.507H64.72C64.2587 128.512 63.8978 128.594 63.6374 128.753C63.3771 128.91 63.2469 129.126 63.2469 129.403C63.2469 129.629 63.3332 129.817 63.506 129.966C63.6813 130.115 63.9081 130.19 64.1865 130.19ZM65.099 124.778H65.6597L64.7664 125.823H64.3604L65.099 124.778ZM68.5637 128.455C68.5637 127.823 68.7081 127.322 68.9968 126.954C69.288 126.583 69.6851 126.398 70.1876 126.398C70.7522 126.398 71.1814 126.606 71.4751 127.021L71.4984 126.473H71.9314V132.064H71.4674V130.011C71.1633 130.394 70.7341 130.586 70.18 130.586C69.6901 130.586 69.2983 130.399 69.0046 130.026C68.7106 129.653 68.5637 129.149 68.5637 128.514V128.455ZM69.0317 128.533C69.0317 129.056 69.1398 129.466 69.3563 129.765C69.5755 130.061 69.8783 130.209 70.265 130.209C70.8192 130.209 71.22 129.976 71.4674 129.511V127.533C71.3514 127.291 71.1904 127.106 70.9842 126.977C70.7805 126.845 70.5433 126.779 70.2726 126.779C69.8835 126.779 69.5793 126.928 69.3603 127.227C69.1411 127.523 69.0317 127.958 69.0317 128.533ZM77.3603 130C77.082 130.39 76.6373 130.586 76.0265 130.586C75.5805 130.586 75.2415 130.461 75.0096 130.212C74.7776 129.961 74.659 129.59 74.6539 129.1V126.473H75.114V129.044C75.114 129.813 75.4361 130.198 76.0805 130.198C76.7507 130.198 77.1748 129.93 77.3527 129.395V126.473H77.8166V130.511H77.3681L77.3603 130ZM81.0456 130.511H80.5815V126.473H81.0456V130.511ZM80.5005 125.305C80.5005 125.22 80.5288 125.149 80.5855 125.092C80.6422 125.032 80.7195 125.002 80.8175 125.002C80.9154 125.002 80.9927 125.032 81.0494 125.092C81.1087 125.149 81.1384 125.22 81.1384 125.305C81.1384 125.389 81.1087 125.46 81.0494 125.517C80.9927 125.575 80.9154 125.603 80.8175 125.603C80.7195 125.603 80.6422 125.575 80.5855 125.517C80.5288 125.46 80.5005 125.389 80.5005 125.305ZM84.2513 126.473L84.2668 127.163C84.4241 126.914 84.62 126.725 84.8545 126.596C85.089 126.464 85.3481 126.398 85.6316 126.398C86.0801 126.398 86.414 126.52 86.633 126.764C86.8522 127.008 86.963 127.373 86.9656 127.861V130.511H86.5055V127.857C86.5028 127.497 86.423 127.228 86.2657 127.051C86.111 126.875 85.8624 126.786 85.5195 126.786C85.2333 126.786 84.9794 126.873 84.7577 127.048C84.5387 127.219 84.3764 127.452 84.2706 127.745V130.511H83.8105V126.473H84.2513ZM92.3094 130.511C92.263 130.384 92.2334 130.196 92.2204 129.948C92.0581 130.152 91.8506 130.31 91.598 130.421C91.348 130.531 91.0825 130.586 90.8014 130.586C90.3993 130.586 90.0734 130.477 89.8233 130.261C89.5758 130.044 89.4521 129.771 89.4521 129.44C89.4521 129.047 89.6209 128.736 89.9586 128.507C90.2989 128.278 90.7718 128.164 91.3776 128.164H92.2166V127.704C92.2166 127.416 92.1238 127.189 91.9382 127.025C91.7553 126.858 91.4872 126.775 91.134 126.775C90.8119 126.775 90.545 126.855 90.3336 127.014C90.1223 127.173 90.0165 127.365 90.0165 127.589L89.5527 127.585C89.5527 127.264 89.7073 126.987 90.0165 126.753C90.326 126.516 90.7061 126.398 91.1573 126.398C91.6238 126.398 91.9911 126.511 92.2592 126.738C92.5299 126.962 92.6689 127.275 92.6767 127.678V129.589C92.6767 129.98 92.7193 130.272 92.8043 130.466V130.511H92.3094ZM90.8556 130.19C91.1649 130.19 91.4408 130.118 91.6831 129.974C91.9279 129.829 92.1058 129.636 92.2166 129.395V128.507H91.3891C90.9278 128.512 90.5669 128.594 90.3065 128.753C90.0463 128.91 89.9161 129.126 89.9161 129.403C89.9161 129.629 90.0025 129.817 90.1751 129.966C90.3504 130.115 90.5772 130.19 90.8556 130.19ZM97.9239 129.485C97.9239 129.263 97.8311 129.085 97.6455 128.951C97.4626 128.817 97.1854 128.712 96.8142 128.637C96.4432 128.56 96.1545 128.473 95.9483 128.376C95.7446 128.277 95.5924 128.156 95.492 128.014C95.394 127.872 95.345 127.701 95.345 127.499C95.345 127.181 95.483 126.918 95.7587 126.712C96.0346 126.503 96.3877 126.398 96.8182 126.398C97.2848 126.398 97.6585 126.51 97.9395 126.734C98.2229 126.956 98.3647 127.245 98.3647 127.604H97.9008C97.9008 127.367 97.7977 127.171 97.5914 127.014C97.3878 126.857 97.13 126.779 96.8182 126.779C96.514 126.779 96.2691 126.845 96.0835 126.977C95.9005 127.106 95.8091 127.275 95.8091 127.484C95.8091 127.686 95.8851 127.843 96.0371 127.955C96.1918 128.064 96.4715 128.165 96.8762 128.257C97.2833 128.349 97.5875 128.447 97.7887 128.552C97.9922 128.656 98.1431 128.782 98.241 128.929C98.339 129.075 98.388 129.253 98.388 129.462C98.388 129.803 98.2448 130.076 97.9588 130.28C97.6751 130.484 97.3041 130.586 96.8453 130.586C96.358 130.586 95.9624 130.473 95.6581 130.246C95.3566 130.017 95.2058 129.729 95.2058 129.38H95.6699C95.6879 129.642 95.8013 129.845 96.01 129.992C96.2215 130.137 96.4999 130.209 96.8453 130.209C97.1674 130.209 97.4278 130.14 97.6262 130.004C97.8246 129.867 97.9239 129.694 97.9239 129.485ZM105.986 130.586C105.631 130.586 105.309 130.501 105.02 130.332C104.734 130.163 104.511 129.928 104.351 129.627C104.191 129.323 104.111 128.983 104.111 128.608V128.447C104.111 128.059 104.189 127.709 104.343 127.398C104.5 127.087 104.718 126.843 104.997 126.667C105.275 126.488 105.576 126.398 105.901 126.398C106.409 126.398 106.811 126.566 107.108 126.902C107.407 127.235 107.556 127.692 107.556 128.272V128.522H104.571V128.608C104.571 129.065 104.707 129.447 104.977 129.753C105.25 130.057 105.593 130.209 106.006 130.209C106.253 130.209 106.471 130.165 106.659 130.078C106.85 129.991 107.023 129.852 107.177 129.66L107.467 129.873C107.127 130.348 106.633 130.586 105.986 130.586ZM105.901 126.779C105.553 126.779 105.259 126.902 105.02 127.148C104.783 127.395 104.638 127.726 104.587 128.141H107.096V128.093C107.083 127.704 106.968 127.388 106.752 127.145C106.535 126.901 106.252 126.779 105.901 126.779ZM113.91 130.511H113.446V126.473H113.91V130.511ZM113.364 125.305C113.364 125.22 113.393 125.149 113.45 125.092C113.506 125.032 113.584 125.002 113.682 125.002C113.78 125.002 113.857 125.032 113.914 125.092C113.973 125.149 114.003 125.22 114.003 125.305C114.003 125.389 113.973 125.46 113.914 125.517C113.857 125.575 113.78 125.603 113.682 125.603C113.584 125.603 113.506 125.575 113.45 125.517C113.393 125.46 113.364 125.389 113.364 125.305ZM117.096 126.473L117.111 127.13C117.266 126.886 117.46 126.703 117.691 126.581C117.923 126.459 118.181 126.398 118.465 126.398C119.125 126.398 119.544 126.659 119.721 127.182C119.871 126.931 120.071 126.738 120.321 126.603C120.571 126.467 120.846 126.398 121.148 126.398C122.045 126.398 122.503 126.871 122.521 127.816V130.511H122.057V127.85C122.054 127.489 121.973 127.222 121.813 127.048C121.656 126.873 121.398 126.786 121.04 126.786C120.707 126.791 120.426 126.896 120.197 127.1C119.968 127.301 119.84 127.548 119.814 127.839V130.511H119.35V127.816C119.348 127.471 119.263 127.213 119.095 127.044C118.93 126.872 118.675 126.786 118.33 126.786C118.038 126.786 117.788 126.867 117.579 127.029C117.371 127.188 117.216 127.426 117.115 127.742V130.511H116.651V126.473H117.096ZM128.564 128.533C128.564 129.163 128.42 129.663 128.131 130.033C127.843 130.402 127.456 130.586 126.971 130.586C126.399 130.586 125.961 130.392 125.657 130.004V132.064H125.197V126.473H125.626L125.649 127.044C125.951 126.613 126.388 126.398 126.96 126.398C127.46 126.398 127.852 126.581 128.135 126.947C128.421 127.312 128.564 127.82 128.564 128.47V128.533ZM128.1 128.455C128.1 127.94 127.991 127.533 127.772 127.234C127.553 126.936 127.247 126.786 126.855 126.786C126.572 126.786 126.328 126.852 126.125 126.984C125.921 127.116 125.765 127.308 125.657 127.559V129.496C125.768 129.727 125.926 129.904 126.132 130.026C126.339 130.148 126.582 130.209 126.863 130.209C127.252 130.209 127.555 130.059 127.772 129.761C127.991 129.46 128.1 129.024 128.1 128.455ZM131.615 130.511H131.152V124.778H131.615V130.511ZM136.001 130.586C135.645 130.586 135.323 130.501 135.034 130.332C134.748 130.163 134.525 129.928 134.365 129.627C134.205 129.323 134.125 128.983 134.125 128.608V128.447C134.125 128.059 134.203 127.709 134.357 127.398C134.515 127.087 134.732 126.843 135.011 126.667C135.289 126.488 135.591 126.398 135.915 126.398C136.423 126.398 136.825 126.566 137.122 126.902C137.421 127.235 137.57 127.692 137.57 128.272V128.522H134.585V128.608C134.585 129.065 134.721 129.447 134.991 129.753C135.265 130.057 135.607 130.209 136.02 130.209C136.267 130.209 136.485 130.165 136.673 130.078C136.864 129.991 137.037 129.852 137.191 129.66L137.481 129.873C137.141 130.348 136.647 130.586 136.001 130.586ZM135.915 126.779C135.567 126.779 135.274 126.902 135.034 127.148C134.797 127.395 134.652 127.726 134.601 128.141H137.11V128.093C137.097 127.704 136.983 127.388 136.766 127.145C136.55 126.901 136.266 126.779 135.915 126.779ZM142.481 129.485C142.481 129.263 142.388 129.085 142.203 128.951C142.02 128.817 141.743 128.712 141.371 128.637C141 128.56 140.712 128.473 140.505 128.376C140.302 128.277 140.15 128.156 140.049 128.014C139.951 127.872 139.902 127.701 139.902 127.499C139.902 127.181 140.04 126.918 140.316 126.712C140.592 126.503 140.945 126.398 141.375 126.398C141.842 126.398 142.216 126.51 142.497 126.734C142.78 126.956 142.922 127.245 142.922 127.604H142.458C142.458 127.367 142.355 127.171 142.149 127.014C141.945 126.857 141.687 126.779 141.375 126.779C141.071 126.779 140.826 126.845 140.641 126.977C140.458 127.106 140.366 127.275 140.366 127.484C140.366 127.686 140.442 127.843 140.594 127.955C140.749 128.064 141.029 128.165 141.433 128.257C141.841 128.349 142.145 128.447 142.346 128.552C142.549 128.656 142.7 128.782 142.798 128.929C142.896 129.075 142.945 129.253 142.945 129.462C142.945 129.803 142.802 130.076 142.516 130.28C142.232 130.484 141.861 130.586 141.402 130.586C140.915 130.586 140.52 130.473 140.215 130.246C139.914 130.017 139.763 129.729 139.763 129.38H140.227C140.245 129.642 140.358 129.845 140.567 129.992C140.779 130.137 141.057 130.209 141.402 130.209C141.725 130.209 141.985 130.14 142.183 130.004C142.382 129.867 142.481 129.694 142.481 129.485ZM145.915 126.473L145.93 127.13C146.085 126.886 146.278 126.703 146.51 126.581C146.742 126.459 147 126.398 147.284 126.398C147.944 126.398 148.362 126.659 148.54 127.182C148.69 126.931 148.89 126.738 149.14 126.603C149.39 126.467 149.665 126.398 149.967 126.398C150.864 126.398 151.322 126.871 151.34 127.816V130.511H150.876V127.85C150.873 127.489 150.792 127.222 150.632 127.048C150.475 126.873 150.217 126.786 149.859 126.786C149.526 126.791 149.245 126.896 149.016 127.1C148.786 127.301 148.659 127.548 148.633 127.839V130.511H148.169V127.816C148.166 127.471 148.081 127.213 147.914 127.044C147.749 126.872 147.494 126.786 147.148 126.786C146.857 126.786 146.607 126.867 146.398 127.029C146.19 127.188 146.035 127.426 145.934 127.742V130.511H145.47V126.473H145.915ZM155.64 130.586C155.284 130.586 154.962 130.501 154.673 130.332C154.387 130.163 154.164 129.928 154.004 129.627C153.844 129.323 153.764 128.983 153.764 128.608V128.447C153.764 128.059 153.842 127.709 153.996 127.398C154.154 127.087 154.371 126.843 154.65 126.667C154.928 126.488 155.23 126.398 155.555 126.398C156.062 126.398 156.464 126.566 156.761 126.902C157.06 127.235 157.209 127.692 157.209 128.272V128.522H154.224V128.608C154.224 129.065 154.36 129.447 154.63 129.753C154.904 130.057 155.247 130.209 155.659 130.209C155.906 130.209 156.124 130.165 156.312 130.078C156.503 129.991 156.676 129.852 156.83 129.66L157.12 129.873C156.78 130.348 156.287 130.586 155.64 130.586ZM155.555 126.779C155.206 126.779 154.913 126.902 154.673 127.148C154.436 127.395 154.291 127.726 154.24 128.141H156.749V128.093C156.736 127.704 156.622 127.388 156.405 127.145C156.189 126.901 155.905 126.779 155.555 126.779ZM160.055 126.473L160.071 127.163C160.228 126.914 160.424 126.725 160.658 126.596C160.893 126.464 161.153 126.398 161.436 126.398C161.884 126.398 162.218 126.52 162.437 126.764C162.656 127.008 162.766 127.373 162.77 127.861V130.511H162.31V127.857C162.307 127.497 162.226 127.228 162.07 127.051C161.916 126.875 161.666 126.786 161.324 126.786C161.037 126.786 160.784 126.873 160.562 127.048C160.343 127.219 160.18 127.452 160.074 127.745V130.511H159.615V126.473H160.055ZM166.192 125.439V126.473H167.058V126.839H166.192V129.529C166.192 129.753 166.233 129.92 166.315 130.03C166.401 130.139 166.542 130.194 166.737 130.194C166.814 130.194 166.939 130.181 167.112 130.157L167.131 130.522C167.011 130.565 166.846 130.586 166.637 130.586C166.32 130.586 166.089 130.497 165.945 130.321C165.801 130.142 165.728 129.879 165.728 129.533V126.839H164.958V126.473H165.728V125.439H166.192ZM169.188 128.432C169.188 128.044 169.266 127.695 169.421 127.383C169.578 127.072 169.798 126.831 170.081 126.659C170.368 126.485 170.691 126.398 171.052 126.398C171.61 126.398 172.061 126.587 172.406 126.965C172.752 127.341 172.924 127.84 172.924 128.462V128.555C172.924 128.946 172.845 129.298 172.688 129.612C172.533 129.923 172.314 130.163 172.031 130.332C171.748 130.501 171.424 130.586 171.06 130.586C170.506 130.586 170.055 130.398 169.708 130.022C169.361 129.644 169.188 129.144 169.188 128.522V128.432ZM169.652 128.555C169.652 129.038 169.782 129.435 170.04 129.746C170.3 130.055 170.641 130.209 171.06 130.209C171.478 130.209 171.816 130.055 172.074 129.746C172.333 129.435 172.463 129.026 172.463 128.518V128.432C172.463 128.124 172.405 127.841 172.286 127.585C172.167 127.329 172.001 127.131 171.787 126.992C171.573 126.85 171.328 126.779 171.052 126.779C170.64 126.779 170.303 126.936 170.043 127.249C169.784 127.56 169.652 127.968 169.652 128.473V128.555ZM177.892 129.485C177.892 129.263 177.8 129.085 177.615 128.951C177.431 128.817 177.154 128.712 176.784 128.637C176.411 128.56 176.123 128.473 175.917 128.376C175.713 128.277 175.561 128.156 175.461 128.014C175.363 127.872 175.314 127.701 175.314 127.499C175.314 127.181 175.452 126.918 175.727 126.712C176.003 126.503 176.356 126.398 176.787 126.398C177.254 126.398 177.628 126.51 177.908 126.734C178.192 126.956 178.334 127.245 178.334 127.604H177.87C177.87 127.367 177.767 127.171 177.56 127.014C177.357 126.857 177.099 126.779 176.787 126.779C176.483 126.779 176.237 126.845 176.052 126.977C175.87 127.106 175.778 127.275 175.778 127.484C175.778 127.686 175.854 127.843 176.006 127.955C176.161 128.064 176.44 128.165 176.845 128.257C177.252 128.349 177.556 128.447 177.758 128.552C177.96 128.656 178.112 128.782 178.211 128.929C178.307 129.075 178.356 129.253 178.356 129.462C178.356 129.803 178.214 130.076 177.927 130.28C177.644 130.484 177.273 130.586 176.814 130.586C176.328 130.586 175.932 130.473 175.628 130.246C175.325 130.017 175.175 129.729 175.175 129.38H175.639C175.656 129.642 175.77 129.845 175.979 129.992C176.19 130.137 176.468 130.209 176.814 130.209C177.137 130.209 177.397 130.14 177.594 130.004C177.794 129.867 177.892 129.694 177.892 129.485ZM186.976 130.511C186.929 130.384 186.9 130.196 186.888 129.948C186.724 130.152 186.517 130.31 186.265 130.421C186.015 130.531 185.749 130.586 185.469 130.586C185.066 130.586 184.74 130.477 184.49 130.261C184.243 130.044 184.119 129.771 184.119 129.44C184.119 129.047 184.287 128.736 184.625 128.507C184.965 128.278 185.439 128.164 186.044 128.164H186.883V127.704C186.883 127.416 186.791 127.189 186.604 127.025C186.422 126.858 186.154 126.775 185.801 126.775C185.478 126.775 185.212 126.855 185 127.014C184.789 127.173 184.683 127.365 184.683 127.589L184.219 127.585C184.219 127.264 184.374 126.987 184.683 126.753C184.992 126.516 185.372 126.398 185.823 126.398C186.291 126.398 186.658 126.511 186.926 126.738C187.196 126.962 187.336 127.275 187.344 127.678V129.589C187.344 129.98 187.386 130.272 187.47 130.466V130.511H186.976ZM185.522 130.19C185.831 130.19 186.107 130.118 186.349 129.974C186.595 129.829 186.772 129.636 186.883 129.395V128.507H186.056C185.594 128.512 185.234 128.594 184.973 128.753C184.713 128.91 184.583 129.126 184.583 129.403C184.583 129.629 184.669 129.817 184.841 129.966C185.017 130.115 185.244 130.19 185.522 130.19ZM189.9 128.455C189.9 127.823 190.044 127.322 190.332 126.954C190.624 126.583 191.018 126.398 191.515 126.398C192.085 126.398 192.518 126.617 192.815 127.055L192.838 126.473H193.271V130.429C193.271 130.949 193.119 131.361 192.819 131.664C192.518 131.968 192.109 132.12 191.593 132.12C191.301 132.12 191.023 132.056 190.758 131.929C190.495 131.805 190.288 131.638 190.136 131.429L190.394 131.16C190.722 131.549 191.111 131.743 191.563 131.743C191.949 131.743 192.25 131.632 192.467 131.411C192.684 131.192 192.795 130.887 192.803 130.496V129.989C192.507 130.387 192.074 130.586 191.507 130.586C191.023 130.586 190.635 130.399 190.34 130.026C190.047 129.653 189.9 129.149 189.9 128.514V128.455ZM190.367 128.533C190.367 129.048 190.475 129.455 190.688 129.753C190.902 130.05 191.203 130.198 191.593 130.198C192.163 130.198 192.567 129.951 192.803 129.459V127.581C192.695 127.322 192.538 127.126 192.336 126.992C192.131 126.855 191.887 126.786 191.601 126.786C191.211 126.786 190.909 126.934 190.692 127.23C190.476 127.524 190.367 127.958 190.367 128.533ZM197.915 126.853C197.817 126.836 197.712 126.827 197.601 126.827C197.313 126.827 197.068 126.906 196.866 127.063C196.669 127.217 196.528 127.442 196.442 127.738V130.511H195.981V126.473H196.434L196.442 127.115C196.688 126.637 197.08 126.398 197.622 126.398C197.75 126.398 197.852 126.414 197.926 126.447L197.915 126.853ZM200.664 130.511H200.2V126.473H200.664V130.511ZM200.905 124.823H201.466L200.572 125.868H200.165L200.905 124.823ZM204.969 130.209C205.29 130.209 205.559 130.122 205.776 129.948C205.995 129.771 206.114 129.543 206.133 129.265H206.576C206.563 129.511 206.484 129.736 206.337 129.94C206.19 130.142 205.995 130.3 205.749 130.414C205.507 130.528 205.247 130.586 204.969 130.586C204.419 130.586 203.984 130.402 203.662 130.033C203.342 129.665 203.182 129.17 203.182 128.548V128.413C203.182 128.015 203.254 127.663 203.399 127.357C203.543 127.051 203.749 126.815 204.017 126.648C204.288 126.481 204.604 126.398 204.964 126.398C205.423 126.398 205.802 126.53 206.098 126.794C206.397 127.058 206.556 127.405 206.576 127.835H206.133C206.112 127.519 205.993 127.264 205.776 127.07C205.563 126.876 205.292 126.779 204.964 126.779C204.547 126.779 204.223 126.924 203.99 127.216C203.76 127.507 203.646 127.915 203.646 128.44V128.57C203.646 129.085 203.76 129.487 203.99 129.776C204.223 130.065 204.549 130.209 204.969 130.209ZM208.754 128.432C208.754 128.044 208.831 127.695 208.986 127.383C209.143 127.072 209.363 126.831 209.647 126.659C209.934 126.485 210.257 126.398 210.618 126.398C211.175 126.398 211.625 126.587 211.97 126.965C212.317 127.341 212.49 127.84 212.49 128.462V128.555C212.49 128.946 212.41 129.298 212.254 129.612C212.098 129.923 211.88 130.163 211.596 130.332C211.313 130.501 210.988 130.586 210.626 130.586C210.071 130.586 209.62 130.398 209.272 130.022C208.926 129.644 208.754 129.144 208.754 128.522V128.432ZM209.218 128.555C209.218 129.038 209.348 129.435 209.604 129.746C209.865 130.055 210.206 130.209 210.626 130.209C211.044 130.209 211.381 130.055 211.639 129.746C211.899 129.435 212.029 129.026 212.029 128.518V128.432C212.029 128.124 211.97 127.841 211.851 127.585C211.733 127.329 211.566 127.131 211.353 126.992C211.139 126.85 210.893 126.779 210.618 126.779C210.206 126.779 209.869 126.936 209.609 127.249C209.348 127.56 209.218 127.968 209.218 128.473V128.555ZM215.47 130.511H215.006V124.778H215.47V130.511ZM220.877 130.511C220.829 130.384 220.801 130.196 220.787 129.948C220.625 130.152 220.418 130.31 220.164 130.421C219.916 130.531 219.649 130.586 219.368 130.586C218.967 130.586 218.641 130.477 218.39 130.261C218.143 130.044 218.018 129.771 218.018 129.44C218.018 129.047 218.188 128.736 218.525 128.507C218.866 128.278 219.339 128.164 219.944 128.164H220.783V127.704C220.783 127.416 220.69 127.189 220.505 127.025C220.323 126.858 220.053 126.775 219.7 126.775C219.379 126.775 219.113 126.855 218.9 127.014C218.69 127.173 218.584 127.365 218.584 127.589L218.12 127.585C218.12 127.264 218.275 126.987 218.584 126.753C218.892 126.516 219.273 126.398 219.724 126.398C220.191 126.398 220.559 126.511 220.826 126.738C221.097 126.962 221.236 127.275 221.244 127.678V129.589C221.244 129.98 221.285 130.272 221.371 130.466V130.511H220.877ZM219.423 130.19C219.732 130.19 220.007 130.118 220.25 129.974C220.495 129.829 220.673 129.636 220.783 129.395V128.507H219.957C219.494 128.512 219.133 128.594 218.873 128.753C218.614 128.91 218.482 129.126 218.482 129.403C218.482 129.629 218.569 129.817 218.742 129.966C218.918 130.115 219.144 130.19 219.423 130.19ZM226.491 129.485C226.491 129.263 226.398 129.085 226.212 128.951C226.03 128.817 225.753 128.712 225.381 128.637C225.01 128.56 224.722 128.473 224.515 128.376C224.312 128.277 224.16 128.156 224.058 128.014C223.96 127.872 223.911 127.701 223.911 127.499C223.911 127.181 224.051 126.918 224.326 126.712C224.602 126.503 224.955 126.398 225.386 126.398C225.851 126.398 226.225 126.51 226.507 126.734C226.79 126.956 226.931 127.245 226.931 127.604H226.467C226.467 127.367 226.364 127.171 226.158 127.014C225.954 126.857 225.698 126.779 225.386 126.779C225.082 126.779 224.836 126.845 224.651 126.977C224.467 127.106 224.375 127.275 224.375 127.484C224.375 127.686 224.451 127.843 224.603 127.955C224.758 128.064 225.039 128.165 225.443 128.257C225.85 128.349 226.154 128.447 226.355 128.552C226.559 128.656 226.71 128.782 226.808 128.929C226.906 129.075 226.955 129.253 226.955 129.462C226.955 129.803 226.811 130.076 226.526 130.28C226.242 130.484 225.87 130.586 225.413 130.586C224.925 130.586 224.529 130.473 224.225 130.246C223.924 130.017 223.773 129.729 223.773 129.38H224.237C224.255 129.642 224.369 129.845 224.576 129.992C224.789 130.137 225.067 130.209 225.413 130.209C225.734 130.209 225.995 130.14 226.193 130.004C226.391 129.867 226.491 129.694 226.491 129.485Z" fill="#A0BF1D"/>
<path d="M89.7764 56.3208C89.7764 63.126 84.2657 68.6421 77.4684 68.6421C70.6713 68.6421 65.1606 63.126 65.1606 56.3208C65.1606 49.5156 70.6713 43.9995 77.4684 43.9995C84.2657 43.9995 89.7764 49.5156 89.7764 56.3208Z" stroke="#A0BF1D"/>
<path d="M142.063 50.4228C142.063 59.8906 134.396 67.5652 124.94 67.5652C115.483 67.5652 107.816 59.8906 107.816 50.4228C107.816 40.9551 115.483 33.2805 124.94 33.2805C134.396 33.2805 142.063 40.9551 142.063 50.4228Z" stroke="#A0BF1D"/>
<path fill-rule="evenodd" clip-rule="evenodd" d="M98.9053 26.4898L103.589 5.0207C103.807 4.62783 104.226 4.21867 104.896 3.82048C105.602 3.40081 106.532 3.02613 107.648 2.70761C109.878 2.07081 112.754 1.68647 115.835 1.56809C121.825 1.33784 128.381 2.1193 132.272 3.83577L134.575 23.5398C134.61 23.8394 134.818 24.0903 135.105 24.1805C136.079 24.4856 137.54 25.0826 138.74 25.8648C139.34 26.256 139.844 26.6735 140.191 27.0981C140.537 27.5223 140.687 27.9037 140.687 28.244C140.687 28.6759 140.573 28.8839 140.475 28.992C140.369 29.108 140.194 29.2044 139.913 29.2516C139.321 29.3511 138.529 29.1854 137.959 28.9677C137.932 28.9573 137.904 28.9483 137.875 28.9411L135.993 28.4619C135.753 28.4007 135.498 28.4599 135.309 28.6205C135.121 28.7814 135.021 29.0237 135.044 29.2706L135.514 34.5429C135.552 34.9633 135.923 35.2737 136.343 35.2361C136.763 35.1985 137.073 34.8274 137.036 34.4068L136.661 30.2095L137.457 30.4121C138.144 30.6684 139.21 30.9199 140.166 30.7592C140.669 30.6747 141.2 30.4654 141.604 30.0213C142.016 29.5691 142.215 28.9624 142.215 28.244C142.215 27.4339 141.856 26.7209 141.374 26.1307C140.892 25.5406 140.248 25.0236 139.574 24.5839C138.413 23.8272 137.068 23.2408 136.036 22.8792L133.74 3.23178C133.709 2.97125 133.547 2.74454 133.311 2.63121C129.145 0.63445 122.057 -0.200929 115.776 0.0404707C112.621 0.161723 109.615 0.556244 107.228 1.23751C106.036 1.57802 104.972 1.99716 104.116 2.50612C103.266 3.01124 102.563 3.63876 102.179 4.42146C102.152 4.47678 102.131 4.53519 102.118 4.59543L97.5319 25.6172L87.7416 26.5237C86.3593 26.632 84.5408 26.7403 82.5237 26.8605H82.5235L81.9156 26.8969C79.6586 27.0316 77.1968 27.1817 74.8658 27.3621C72.5375 27.5422 70.3254 27.7534 68.5709 28.0119C67.6947 28.1411 66.9171 28.2842 66.2895 28.4453C65.6952 28.5978 65.1252 28.7919 64.7556 29.0743C63.3091 30.1794 62.3759 31.8373 61.79 33.7063C61.2032 35.5784 60.9461 37.7199 60.892 39.8739C60.7837 44.1814 61.4849 48.6639 62.1222 51.4224C62.217 51.8336 62.6274 52.09 63.0384 51.9949C63.4495 51.8998 63.7057 51.4893 63.6107 51.078C62.993 48.4044 62.3151 44.055 62.4192 39.9124C62.4713 37.8413 62.7182 35.8533 63.2478 34.1639C63.7783 32.4716 64.5738 31.1365 65.6827 30.2895C65.7836 30.2123 66.0813 30.077 66.669 29.9261C67.2233 29.7839 67.9419 29.65 68.7935 29.5245C70.4949 29.2738 72.6649 29.0655 74.9835 28.8862C77.2994 28.7071 79.7491 28.5577 82.0067 28.4229L82.6178 28.3863H82.6181C84.6325 28.2663 86.4681 28.157 87.8661 28.0474V28.0476L87.8768 28.0465L98.2294 27.088C98.5609 27.0572 98.8342 26.8152 98.9053 26.4898ZM106.159 3.51481C105.737 3.51481 105.395 3.85703 105.395 4.27919C105.395 4.70134 105.737 5.04356 106.159 5.04356H129.687C130.109 5.04356 130.451 4.70134 130.451 4.27919C130.451 3.85703 130.109 3.51481 129.687 3.51481H106.159ZM106.199 52.0134C106.621 51.9911 106.944 51.6311 106.922 51.2096C106.899 50.788 106.539 50.4645 106.118 50.487L93.2299 51.174C92.8933 47.8769 91.7488 45.4169 90.0834 43.6268C88.3013 41.7108 85.98 40.6232 83.5835 40.053C78.8165 38.9187 73.5822 39.7892 71.0774 40.4662C70.6701 40.5763 70.429 40.996 70.5392 41.4035C70.6492 41.8111 71.0685 42.0522 71.4758 41.9421C73.8633 41.2967 78.8141 40.4896 83.2299 41.5403C85.4248 42.0626 87.4443 43.0333 88.9652 44.6683C90.4782 46.2949 91.5556 48.6405 91.767 52.0244C91.793 52.4425 92.1511 52.7623 92.57 52.74L106.199 52.0134Z" fill="#A0BF1D"/>
<path d="M104.001 44.0298C106.398 40.4325 110.182 33.4317 117.237 30.7853C124.048 28.2306 130.001 29.3027 132.238 29.9023" stroke="#A0BF1D" stroke-linecap="round" stroke-linejoin="round"/>
<path d="M82.2843 12.191C82.9723 11.8838 84.7611 11.4538 86.4122 12.191M84.3483 26.9358V12.6518V26.9358Z" stroke="#A0BF1D"/>
<path d="M22.9166 82.8648C46.1489 72.8525 99.5924 59.327 176.252 75.1457C185.602 77.0752 190.558 77.9964 191.97 78.2514C192.532 78.3484 192.552 78.3564 191.97 78.2514C184.551 76.9694 82.6225 60.1504 22.9166 82.8648Z" fill="#A0BF1D"/>
</g>
<defs>
<clipPath id="clip0">
<rect width="220" height="133" fill="#A0BF1D"/>
</clipPath>
</defs>
</svg>
