<svg width="238" height="147" viewBox="0 0 238 147" fill="none" xmlns="http://www.w3.org/2000/svg">
<g opacity="0.05">
<path d="M25.5604 117.117H10.169L6.67197 126.507H5.39835L17.1631 95.0764H18.5879L30.3526 126.507H29.079L25.5604 117.117ZM10.6008 115.951H25.1286L17.8755 96.4796L10.6008 115.951Z" fill="#F3F0EB"/>
<path d="M70.5774 123.139C69.7859 124.233 68.3971 125.14 66.4111 125.859C64.4251 126.579 62.2377 126.938 59.8488 126.938C57.5174 126.938 55.4379 126.37 53.6102 125.233C51.7825 124.096 50.3506 122.492 49.3144 120.419C48.2927 118.347 47.7674 116.001 47.7386 113.382V107.985C47.7386 105.409 48.2351 103.1 49.2281 101.056C50.2211 99.0124 51.617 97.4366 53.4159 96.3285C55.2148 95.206 57.2368 94.6447 59.4818 94.6447C62.6047 94.6447 65.1447 95.4434 67.1019 97.0408C69.0735 98.6383 70.2176 100.819 70.5342 103.582H69.3685C68.9799 101.078 67.9366 99.1563 66.2384 97.818C64.5403 96.4796 62.2881 95.8104 59.4818 95.8104C56.3157 95.8104 53.7613 96.9401 51.8185 99.1995C49.8757 101.459 48.9043 104.431 48.9043 108.115V113.123C48.9043 115.584 49.3576 117.779 50.2642 119.707C51.1853 121.635 52.4733 123.132 54.1283 124.197C55.7976 125.248 57.7045 125.773 59.8488 125.773C61.9499 125.773 63.8999 125.463 65.6988 124.845C67.4977 124.226 68.7353 123.477 69.4117 122.6V113.447H59.8056V112.259H70.5774V123.139Z" fill="#F3F0EB"/>
<path d="M104.002 113.058H93.101V126.507H91.9353V95.0764H101.952C105.103 95.0764 107.607 95.8895 109.464 97.5158C111.335 99.142 112.27 101.351 112.27 104.143C112.27 106.287 111.601 108.165 110.262 109.777C108.938 111.374 107.247 112.367 105.19 112.756L113.587 126.205V126.507H112.356L104.002 113.058ZM93.101 111.893H103.009C105.427 111.893 107.377 111.159 108.859 109.691C110.356 108.223 111.104 106.374 111.104 104.143C111.104 101.696 110.277 99.768 108.622 98.3576C106.981 96.9473 104.729 96.2421 101.865 96.2421H93.101V111.893Z" fill="#F3F0EB"/>
<path d="M156.488 113.145C156.488 115.864 155.999 118.275 155.02 120.376C154.056 122.463 152.675 124.082 150.876 125.233C149.077 126.37 147.005 126.938 144.659 126.938C141.119 126.938 138.255 125.679 136.067 123.161C133.88 120.642 132.786 117.246 132.786 112.972V108.439C132.786 105.733 133.268 103.33 134.232 101.229C135.211 99.1276 136.6 97.5086 138.399 96.3717C140.212 95.2204 142.284 94.6447 144.616 94.6447C146.961 94.6447 149.034 95.2204 150.833 96.3717C152.646 97.5086 154.042 99.1348 155.02 101.25C155.999 103.351 156.488 105.747 156.488 108.439V113.145ZM155.323 108.395C155.323 104.596 154.358 101.552 152.43 99.2643C150.502 96.9617 147.897 95.8104 144.616 95.8104C141.378 95.8104 138.794 96.9545 136.866 99.2427C134.938 101.516 133.973 104.618 133.973 108.547V113.145C133.973 115.649 134.405 117.865 135.269 119.793C136.146 121.707 137.391 123.182 139.003 124.219C140.615 125.255 142.5 125.773 144.659 125.773C147.94 125.773 150.538 124.629 152.452 122.341C154.366 120.052 155.323 116.929 155.323 112.972V108.395Z" fill="#F3F0EB"/>
<path d="M178.127 125.341H194.252V126.507H176.94V95.0764H178.127V125.341Z" fill="#F3F0EB"/>
<path d="M233.031 95.0764V116.361C233.031 119.685 232.066 122.283 230.138 124.154C228.21 126.01 225.598 126.938 222.302 126.938C219.006 126.938 216.394 126.01 214.466 124.154C212.538 122.283 211.566 119.714 211.552 116.447V95.0764H212.717V116.318C212.717 119.225 213.588 121.527 215.329 123.226C217.085 124.924 219.409 125.773 222.302 125.773C225.195 125.773 227.512 124.924 229.253 123.226C230.994 121.527 231.865 119.218 231.865 116.296V95.0764H233.031Z" fill="#F3F0EB"/>
<path d="M3.06781 145.211C3.01799 145.07 2.98617 144.861 2.97233 144.584C2.79797 144.811 2.57519 144.987 2.30397 145.111C2.03552 145.233 1.75046 145.294 1.4488 145.294C1.01707 145.294 0.666975 145.173 0.398525 144.933C0.132841 144.692 0 144.387 0 144.019C0 143.582 0.181273 143.236 0.54382 142.982C0.909134 142.727 1.41698 142.6 2.06735 142.6H2.96818V142.089C2.96818 141.768 2.86855 141.516 2.66928 141.333C2.47279 141.148 2.18497 141.055 1.80581 141.055C1.45987 141.055 1.17343 141.144 0.946496 141.321C0.719558 141.498 0.606089 141.711 0.606089 141.96L0.107934 141.956C0.107934 141.599 0.273986 141.291 0.606089 141.03C0.938193 140.768 1.3464 140.636 1.83072 140.636C2.33165 140.636 2.72602 140.762 3.01384 141.014C3.30443 141.263 3.45388 141.612 3.46218 142.06V144.185C3.46218 144.62 3.50785 144.945 3.59917 145.161V145.211H3.06781ZM1.50692 144.854C1.83902 144.854 2.13515 144.774 2.3953 144.613C2.65821 144.452 2.84917 144.238 2.96818 143.97V142.982H2.0798C1.58441 142.987 1.19696 143.078 0.917437 143.256C0.637916 143.43 0.498156 143.671 0.498156 143.978C0.498156 144.23 0.590868 144.439 0.776293 144.605C0.964485 144.771 1.20803 144.854 1.50692 144.854Z" fill="#F3F0EB"/>
<path d="M6.96222 145.211H6.46407V138.834H6.96222V145.211Z" fill="#F3F0EB"/>
<path d="M12.8202 144.642C12.5213 145.077 12.0439 145.294 11.388 145.294C10.9092 145.294 10.5453 145.155 10.2962 144.879C10.0471 144.599 9.91983 144.187 9.91429 143.642V140.719H10.4083V143.579C10.4083 144.435 10.7542 144.862 11.4461 144.862C12.1657 144.862 12.6209 144.565 12.8119 143.97V140.719H13.3101V145.211H12.8285L12.8202 144.642Z" fill="#F3F0EB"/>
<path d="M16.0214 142.923C16.0214 142.22 16.1763 141.664 16.4863 141.255C16.799 140.842 17.2225 140.636 17.7566 140.636C18.3682 140.636 18.8332 140.88 19.1514 141.367L19.1763 140.719H19.6413V145.119C19.6413 145.698 19.4794 146.156 19.1556 146.494C18.8318 146.831 18.3931 147 17.8396 147C17.5269 147 17.228 146.929 16.9429 146.788C16.6607 146.65 16.4379 146.464 16.2746 146.232L16.5527 145.933C16.9042 146.365 17.3221 146.581 17.8064 146.581C18.2215 146.581 18.5453 146.458 18.7778 146.211C19.0103 145.968 19.1307 145.629 19.139 145.194V144.63C18.8207 145.072 18.3571 145.294 17.7483 145.294C17.228 145.294 16.8101 145.086 16.4946 144.671C16.1791 144.256 16.0214 143.696 16.0214 142.99V142.923ZM16.5237 143.011C16.5237 143.583 16.6385 144.036 16.8682 144.368C17.0979 144.697 17.4217 144.862 17.8396 144.862C18.4512 144.862 18.8844 144.588 19.139 144.04V141.952C19.0227 141.664 18.8553 141.446 18.6367 141.296C18.418 141.144 18.1551 141.068 17.8479 141.068C17.43 141.068 17.1048 141.232 16.8724 141.562C16.6399 141.888 16.5237 142.371 16.5237 143.011Z" fill="#F3F0EB"/>
<path d="M25.4411 144.642C25.1422 145.077 24.6648 145.294 24.0089 145.294C23.5302 145.294 23.1662 145.155 22.9172 144.879C22.6681 144.599 22.5408 144.187 22.5352 143.642V140.719H23.0292V143.579C23.0292 144.435 23.3752 144.862 24.0671 144.862C24.7866 144.862 25.2419 144.565 25.4328 143.97V140.719H25.931V145.211H25.4494L25.4411 144.642Z" fill="#F3F0EB"/>
<path d="M30.5809 145.294C30.199 145.294 29.8531 145.2 29.5431 145.012C29.2359 144.823 28.9965 144.562 28.8249 144.227C28.6534 143.889 28.5676 143.512 28.5676 143.094V142.915C28.5676 142.483 28.6506 142.095 28.8166 141.749C28.9855 141.403 29.2193 141.131 29.5182 140.935C29.8171 140.736 30.1409 140.636 30.4896 140.636C31.0348 140.636 31.4666 140.823 31.7848 141.196C32.1059 141.567 32.2664 142.075 32.2664 142.72V142.998H29.0616V143.094C29.0616 143.603 29.2069 144.028 29.4975 144.368C29.7908 144.706 30.1589 144.875 30.6017 144.875C30.8674 144.875 31.1012 144.826 31.3033 144.729C31.5081 144.632 31.6935 144.477 31.8595 144.264L32.1709 144.501C31.8056 145.03 31.2756 145.294 30.5809 145.294ZM30.4896 141.06C30.116 141.06 29.8005 141.196 29.5431 141.47C29.2885 141.744 29.1335 142.113 29.0782 142.575H31.7724V142.521C31.7585 142.089 31.6354 141.738 31.4029 141.466C31.1704 141.195 30.866 141.06 30.4896 141.06Z" fill="#F3F0EB"/>
<path d="M35.4053 145.211H34.9071V138.834H35.4053V145.211Z" fill="#F3F0EB"/>
<path d="M41.8574 142.923C41.8574 142.226 42.0123 141.671 42.3223 141.259C42.635 140.844 43.0585 140.636 43.5926 140.636C44.1987 140.636 44.6609 140.875 44.9791 141.354V138.834H45.4731V145.211H45.0082L44.9874 144.613C44.6692 145.067 44.2015 145.294 43.5843 145.294C43.0668 145.294 42.6489 145.086 42.3306 144.671C42.0151 144.253 41.8574 143.69 41.8574 142.982V142.923ZM42.3597 143.011C42.3597 143.583 42.4745 144.036 42.7042 144.368C42.9339 144.697 43.2577 144.862 43.6756 144.862C44.2873 144.862 44.7218 144.592 44.9791 144.053V141.944C44.7218 141.36 44.29 141.068 43.6839 141.068C43.266 141.068 42.9408 141.232 42.7084 141.562C42.4759 141.888 42.3597 142.371 42.3597 143.011Z" fill="#F3F0EB"/>
<path d="M50.1355 145.294C49.7536 145.294 49.4077 145.2 49.0977 145.012C48.7905 144.823 48.5511 144.562 48.3795 144.227C48.208 143.889 48.1222 143.512 48.1222 143.094V142.915C48.1222 142.483 48.2052 142.095 48.3712 141.749C48.5401 141.403 48.7739 141.131 49.0728 140.935C49.3717 140.736 49.6955 140.636 50.0442 140.636C50.5894 140.636 51.0212 140.823 51.3394 141.196C51.6605 141.567 51.821 142.075 51.821 142.72V142.998H48.6162V143.094C48.6162 143.603 48.7615 144.028 49.0521 144.368C49.3454 144.706 49.7135 144.875 50.1563 144.875C50.422 144.875 50.6558 144.826 50.8579 144.729C51.0627 144.632 51.2481 144.477 51.4141 144.264L51.7255 144.501C51.3602 145.03 50.8302 145.294 50.1355 145.294ZM50.0442 141.06C49.6706 141.06 49.3551 141.196 49.0977 141.47C48.8431 141.744 48.6881 142.113 48.6328 142.575H51.327V142.521C51.3131 142.089 51.19 141.738 50.9575 141.466C50.725 141.195 50.4206 141.06 50.0442 141.06Z" fill="#F3F0EB"/>
<path d="M58.5388 140.719L58.5554 141.45C58.7214 141.179 58.929 140.975 59.1781 140.839C59.4271 140.704 59.7039 140.636 60.0083 140.636C60.7168 140.636 61.1665 140.927 61.3575 141.508C61.518 141.228 61.7325 141.014 62.0009 140.864C62.2694 140.712 62.5655 140.636 62.8893 140.636C63.8524 140.636 64.3437 141.162 64.363 142.214V145.211H63.8649V142.251C63.8621 141.85 63.7749 141.552 63.6034 141.358C63.4345 141.165 63.1578 141.068 62.7731 141.068C62.4161 141.073 62.1144 141.19 61.8681 141.417C61.6218 141.641 61.4848 141.915 61.4571 142.238V145.211H60.959V142.214C60.9562 141.829 60.8649 141.542 60.685 141.354C60.5079 141.163 60.2339 141.068 59.863 141.068C59.5503 141.068 59.2819 141.158 59.0577 141.338C58.8335 141.515 58.6675 141.779 58.5595 142.131V145.211H58.0614V140.719H58.5388Z" fill="#F3F0EB"/>
<path d="M70.0757 145.211C70.0259 145.07 69.9941 144.861 69.9802 144.584C69.8059 144.811 69.5831 144.987 69.3119 145.111C69.0434 145.233 68.7584 145.294 68.4567 145.294C68.025 145.294 67.6749 145.173 67.4064 144.933C67.1408 144.692 67.0079 144.387 67.0079 144.019C67.0079 143.582 67.1892 143.236 67.5517 142.982C67.917 142.727 68.4249 142.6 69.0753 142.6H69.9761V142.089C69.9761 141.768 69.8765 141.516 69.6772 141.333C69.4807 141.148 69.1929 141.055 68.8137 141.055C68.4678 141.055 68.1814 141.144 67.9544 141.321C67.7275 141.498 67.614 141.711 67.614 141.96L67.1158 141.956C67.1158 141.599 67.2819 141.291 67.614 141.03C67.9461 140.768 68.3543 140.636 68.8386 140.636C69.3396 140.636 69.7339 140.762 70.0218 141.014C70.3123 141.263 70.4618 141.612 70.4701 142.06V144.185C70.4701 144.62 70.5158 144.945 70.6071 145.161V145.211H70.0757ZM68.5148 144.854C68.8469 144.854 69.1431 144.774 69.4032 144.613C69.6661 144.452 69.8571 144.238 69.9761 143.97V142.982H69.0877C68.5923 142.987 68.2049 143.078 67.9254 143.256C67.6458 143.43 67.5061 143.671 67.5061 143.978C67.5061 144.23 67.5988 144.439 67.7842 144.605C67.9724 144.771 68.2159 144.854 68.5148 144.854ZM69.4945 138.834H70.0965L69.1375 139.997H68.7016L69.4945 138.834Z" fill="#F3F0EB"/>
<path d="M73.2146 142.923C73.2146 142.22 73.3696 141.664 73.6795 141.255C73.9923 140.842 74.4185 140.636 74.9581 140.636C75.5642 140.636 76.025 140.867 76.3405 141.329L76.3654 140.719H76.8304V146.938H76.3322V144.655C76.0057 145.081 75.5449 145.294 74.9498 145.294C74.424 145.294 74.0033 145.086 73.6878 144.671C73.3723 144.256 73.2146 143.696 73.2146 142.99V142.923ZM73.7169 143.011C73.7169 143.592 73.8331 144.048 74.0656 144.381C74.3008 144.71 74.626 144.875 75.0412 144.875C75.6362 144.875 76.0665 144.616 76.3322 144.098V141.898C76.2077 141.63 76.0347 141.423 75.8133 141.28C75.5947 141.133 75.3401 141.06 75.0495 141.06C74.6316 141.06 74.305 141.226 74.0698 141.558C73.8345 141.887 73.7169 142.371 73.7169 143.011Z" fill="#F3F0EB"/>
<path d="M82.6593 144.642C82.3604 145.077 81.883 145.294 81.2271 145.294C80.7483 145.294 80.3844 145.155 80.1353 144.879C79.8862 144.599 79.7589 144.187 79.7534 143.642V140.719H80.2474V143.579C80.2474 144.435 80.5933 144.862 81.2852 144.862C82.0048 144.862 82.46 144.565 82.651 143.97V140.719H83.1491V145.211H82.6676L82.6593 144.642Z" fill="#F3F0EB"/>
<path d="M86.616 145.211H86.1178V140.719H86.616V145.211ZM86.0306 139.42C86.0306 139.326 86.0611 139.247 86.122 139.183C86.1829 139.117 86.2659 139.083 86.3711 139.083C86.4762 139.083 86.5592 139.117 86.6201 139.183C86.6838 139.247 86.7156 139.326 86.7156 139.42C86.7156 139.514 86.6838 139.593 86.6201 139.656C86.5592 139.72 86.4762 139.752 86.3711 139.752C86.2659 139.752 86.1829 139.72 86.122 139.656C86.0611 139.593 86.0306 139.514 86.0306 139.42Z" fill="#F3F0EB"/>
<path d="M90.0579 140.719L90.0745 141.487C90.2433 141.21 90.4537 141 90.7055 140.856C90.9574 140.709 91.2355 140.636 91.5399 140.636C92.0215 140.636 92.3799 140.772 92.6151 141.043C92.8503 141.314 92.9694 141.721 92.9721 142.263V145.211H92.4781V142.259C92.4753 141.858 92.3895 141.559 92.2207 141.363C92.0547 141.166 91.7876 141.068 91.4195 141.068C91.1123 141.068 90.8397 141.165 90.6017 141.358C90.3665 141.549 90.1921 141.808 90.0787 142.135V145.211H89.5847V140.719H90.0579Z" fill="#F3F0EB"/>
<path d="M98.7097 145.211C98.6599 145.07 98.6281 144.861 98.6142 144.584C98.4399 144.811 98.2171 144.987 97.9459 145.111C97.6774 145.233 97.3924 145.294 97.0907 145.294C96.659 145.294 96.3089 145.173 96.0404 144.933C95.7747 144.692 95.6419 144.387 95.6419 144.019C95.6419 143.582 95.8232 143.236 96.1857 142.982C96.551 142.727 97.0589 142.6 97.7092 142.6H98.6101V142.089C98.6101 141.768 98.5104 141.516 98.3112 141.333C98.1147 141.148 97.8269 141.055 97.4477 141.055C97.1018 141.055 96.8153 141.144 96.5884 141.321C96.3615 141.498 96.248 141.711 96.248 141.96L95.7498 141.956C95.7498 141.599 95.9159 141.291 96.248 141.03C96.5801 140.768 96.9883 140.636 97.4726 140.636C97.9735 140.636 98.3679 140.762 98.6557 141.014C98.9463 141.263 99.0958 141.612 99.1041 142.06V144.185C99.1041 144.62 99.1497 144.945 99.2411 145.161V145.211H98.7097ZM97.1488 144.854C97.4809 144.854 97.7771 144.774 98.0372 144.613C98.3001 144.452 98.4911 144.238 98.6101 143.97V142.982H97.7217C97.2263 142.987 96.8389 143.078 96.5593 143.256C96.2798 143.43 96.1401 143.671 96.1401 143.978C96.1401 144.23 96.2328 144.439 96.4182 144.605C96.6064 144.771 96.8499 144.854 97.1488 144.854Z" fill="#F3F0EB"/>
<path d="M104.738 144.069C104.738 143.823 104.638 143.625 104.439 143.476C104.243 143.326 103.945 143.21 103.546 143.127C103.148 143.041 102.838 142.944 102.617 142.836C102.398 142.726 102.235 142.591 102.127 142.434C102.022 142.276 101.969 142.085 101.969 141.861C101.969 141.506 102.117 141.214 102.413 140.985C102.709 140.752 103.088 140.636 103.551 140.636C104.052 140.636 104.453 140.761 104.754 141.01C105.059 141.256 105.211 141.578 105.211 141.977H104.713C104.713 141.714 104.602 141.495 104.381 141.321C104.162 141.147 103.885 141.06 103.551 141.06C103.224 141.06 102.961 141.133 102.762 141.28C102.565 141.423 102.467 141.612 102.467 141.844C102.467 142.068 102.549 142.243 102.712 142.367C102.878 142.489 103.178 142.601 103.613 142.703C104.05 142.806 104.377 142.915 104.593 143.031C104.811 143.148 104.973 143.287 105.078 143.451C105.183 143.614 105.236 143.812 105.236 144.044C105.236 144.423 105.082 144.726 104.775 144.953C104.471 145.18 104.072 145.294 103.58 145.294C103.057 145.294 102.632 145.168 102.305 144.916C101.981 144.661 101.82 144.34 101.82 143.953H102.318C102.337 144.244 102.459 144.47 102.683 144.634C102.91 144.794 103.209 144.875 103.58 144.875C103.926 144.875 104.205 144.798 104.418 144.646C104.631 144.494 104.738 144.302 104.738 144.069Z" fill="#F3F0EB"/>
<path d="M113.394 145.294C113.012 145.294 112.666 145.2 112.357 145.012C112.049 144.823 111.81 144.562 111.638 144.227C111.467 143.889 111.381 143.512 111.381 143.094V142.915C111.381 142.483 111.464 142.095 111.63 141.749C111.799 141.403 112.033 141.131 112.332 140.935C112.631 140.736 112.954 140.636 113.303 140.636C113.848 140.636 114.28 140.823 114.598 141.196C114.919 141.567 115.08 142.075 115.08 142.72V142.998H111.875V143.094C111.875 143.603 112.02 144.028 112.311 144.368C112.604 144.706 112.972 144.875 113.415 144.875C113.681 144.875 113.915 144.826 114.117 144.729C114.321 144.632 114.507 144.477 114.673 144.264L114.984 144.501C114.619 145.03 114.089 145.294 113.394 145.294ZM113.303 141.06C112.929 141.06 112.614 141.196 112.357 141.47C112.102 141.744 111.947 142.113 111.892 142.575H114.586V142.521C114.572 142.089 114.449 141.738 114.216 141.466C113.984 141.195 113.679 141.06 113.303 141.06Z" fill="#F3F0EB"/>
<path d="M121.901 145.211H121.403V140.719H121.901V145.211ZM121.316 139.42C121.316 139.326 121.346 139.247 121.407 139.183C121.468 139.117 121.551 139.083 121.656 139.083C121.762 139.083 121.845 139.117 121.905 139.183C121.969 139.247 122.001 139.326 122.001 139.42C122.001 139.514 121.969 139.593 121.905 139.656C121.845 139.72 121.762 139.752 121.656 139.752C121.551 139.752 121.468 139.72 121.407 139.656C121.346 139.593 121.316 139.514 121.316 139.42Z" fill="#F3F0EB"/>
<path d="M125.323 140.719L125.339 141.45C125.505 141.179 125.713 140.975 125.962 140.839C126.211 140.704 126.488 140.636 126.792 140.636C127.501 140.636 127.95 140.927 128.141 141.508C128.302 141.228 128.516 141.014 128.785 140.864C129.053 140.712 129.349 140.636 129.673 140.636C130.636 140.636 131.127 141.162 131.147 142.214V145.211H130.649V142.251C130.646 141.85 130.559 141.552 130.387 141.358C130.218 141.165 129.942 141.068 129.557 141.068C129.2 141.073 128.898 141.19 128.652 141.417C128.406 141.641 128.269 141.915 128.241 142.238V145.211H127.743V142.214C127.74 141.829 127.649 141.542 127.469 141.354C127.292 141.163 127.018 141.068 126.647 141.068C126.334 141.068 126.066 141.158 125.841 141.338C125.617 141.515 125.451 141.779 125.343 142.131V145.211H124.845V140.719H125.323Z" fill="#F3F0EB"/>
<path d="M137.636 143.011C137.636 143.711 137.481 144.267 137.171 144.679C136.861 145.089 136.446 145.294 135.925 145.294C135.311 145.294 134.841 145.078 134.514 144.646V146.938H134.02V140.719H134.481L134.506 141.354C134.829 140.875 135.299 140.636 135.913 140.636C136.45 140.636 136.871 140.839 137.175 141.246C137.482 141.653 137.636 142.218 137.636 142.94V143.011ZM137.138 142.923C137.138 142.351 137.02 141.898 136.785 141.566C136.549 141.234 136.222 141.068 135.801 141.068C135.496 141.068 135.235 141.141 135.016 141.288C134.798 141.435 134.63 141.648 134.514 141.927V144.082C134.633 144.339 134.803 144.536 135.025 144.671C135.246 144.807 135.508 144.875 135.809 144.875C136.227 144.875 136.552 144.708 136.785 144.376C137.02 144.042 137.138 143.557 137.138 142.923Z" fill="#F3F0EB"/>
<path d="M140.912 145.211H140.413V138.834H140.912V145.211Z" fill="#F3F0EB"/>
<path d="M145.62 145.294C145.238 145.294 144.892 145.2 144.582 145.012C144.275 144.823 144.035 144.562 143.864 144.227C143.692 143.889 143.606 143.512 143.606 143.094V142.915C143.606 142.483 143.689 142.095 143.855 141.749C144.024 141.403 144.258 141.131 144.557 140.935C144.856 140.736 145.18 140.636 145.528 140.636C146.074 140.636 146.505 140.823 146.824 141.196C147.145 141.567 147.305 142.075 147.305 142.72V142.998H144.1V143.094C144.1 143.603 144.246 144.028 144.536 144.368C144.83 144.706 145.198 144.875 145.64 144.875C145.906 144.875 146.14 144.826 146.342 144.729C146.547 144.632 146.732 144.477 146.898 144.264L147.21 144.501C146.844 145.03 146.314 145.294 145.62 145.294ZM145.528 141.06C145.155 141.06 144.839 141.196 144.582 141.47C144.327 141.744 144.172 142.113 144.117 142.575H146.811V142.521C146.797 142.089 146.674 141.738 146.442 141.466C146.209 141.195 145.905 141.06 145.528 141.06Z" fill="#F3F0EB"/>
<path d="M150.34 140.719L150.357 141.45C150.523 141.179 150.73 140.975 150.98 140.839C151.229 140.704 151.505 140.636 151.81 140.636C152.518 140.636 152.968 140.927 153.159 141.508C153.319 141.228 153.534 141.014 153.802 140.864C154.071 140.712 154.367 140.636 154.691 140.636C155.654 140.636 156.145 141.162 156.164 142.214V145.211H155.666V142.251C155.664 141.85 155.576 141.552 155.405 141.358C155.236 141.165 154.959 141.068 154.575 141.068C154.218 141.073 153.916 141.19 153.67 141.417C153.423 141.641 153.286 141.915 153.259 142.238V145.211H152.76V142.214C152.758 141.829 152.666 141.542 152.486 141.354C152.309 141.163 152.035 141.068 151.664 141.068C151.352 141.068 151.083 141.158 150.859 141.338C150.635 141.515 150.469 141.779 150.361 142.131V145.211H149.863V140.719H150.34Z" fill="#F3F0EB"/>
<path d="M160.781 145.294C160.399 145.294 160.053 145.2 159.743 145.012C159.436 144.823 159.197 144.562 159.025 144.227C158.854 143.889 158.768 143.512 158.768 143.094V142.915C158.768 142.483 158.851 142.095 159.017 141.749C159.186 141.403 159.42 141.131 159.718 140.935C160.017 140.736 160.341 140.636 160.69 140.636C161.235 140.636 161.667 140.823 161.985 141.196C162.306 141.567 162.467 142.075 162.467 142.72V142.998H159.262V143.094C159.262 143.603 159.407 144.028 159.698 144.368C159.991 144.706 160.359 144.875 160.802 144.875C161.068 144.875 161.302 144.826 161.504 144.729C161.708 144.632 161.894 144.477 162.06 144.264L162.371 144.501C162.006 145.03 161.476 145.294 160.781 145.294ZM160.69 141.06C160.316 141.06 160.001 141.196 159.743 141.47C159.489 141.744 159.334 142.113 159.278 142.575H161.973V142.521C161.959 142.089 161.836 141.738 161.603 141.466C161.371 141.195 161.066 141.06 160.69 141.06Z" fill="#F3F0EB"/>
<path d="M165.523 140.719L165.539 141.487C165.708 141.21 165.918 141 166.17 140.856C166.422 140.709 166.7 140.636 167.005 140.636C167.486 140.636 167.844 140.772 168.08 141.043C168.315 141.314 168.434 141.721 168.437 142.263V145.211H167.943V142.259C167.94 141.858 167.854 141.559 167.685 141.363C167.519 141.166 167.252 141.068 166.884 141.068C166.577 141.068 166.304 141.165 166.066 141.358C165.831 141.549 165.657 141.808 165.543 142.135V145.211H165.049V140.719H165.523Z" fill="#F3F0EB"/>
<path d="M172.111 139.569V140.719H173.041V141.126H172.111V144.119C172.111 144.368 172.155 144.554 172.244 144.675C172.335 144.797 172.486 144.858 172.696 144.858C172.779 144.858 172.914 144.844 173.099 144.816L173.12 145.223C172.99 145.27 172.813 145.294 172.589 145.294C172.248 145.294 172 145.196 171.845 144.999C171.69 144.8 171.613 144.508 171.613 144.123V141.126H170.787V140.719H171.613V139.569H172.111Z" fill="#F3F0EB"/>
<path d="M175.329 142.899C175.329 142.467 175.412 142.078 175.578 141.732C175.747 141.386 175.983 141.118 176.288 140.927C176.595 140.733 176.942 140.636 177.33 140.636C177.928 140.636 178.412 140.846 178.783 141.267C179.154 141.685 179.339 142.24 179.339 142.932V143.036C179.339 143.47 179.255 143.862 179.086 144.21C178.92 144.556 178.684 144.823 178.38 145.012C178.076 145.2 177.728 145.294 177.338 145.294C176.743 145.294 176.259 145.085 175.885 144.667C175.514 144.246 175.329 143.69 175.329 142.998V142.899ZM175.827 143.036C175.827 143.572 175.965 144.014 176.242 144.36C176.522 144.703 176.887 144.875 177.338 144.875C177.786 144.875 178.149 144.703 178.426 144.36C178.705 144.014 178.845 143.559 178.845 142.994V142.899C178.845 142.555 178.781 142.241 178.654 141.956C178.527 141.671 178.348 141.451 178.119 141.296C177.889 141.138 177.626 141.06 177.33 141.06C176.887 141.06 176.526 141.234 176.246 141.583C175.967 141.929 175.827 142.382 175.827 142.944V143.036Z" fill="#F3F0EB"/>
<path d="M184.674 144.069C184.674 143.823 184.574 143.625 184.375 143.476C184.179 143.326 183.881 143.21 183.483 143.127C183.084 143.041 182.774 142.944 182.553 142.836C182.334 142.726 182.171 142.591 182.063 142.434C181.958 142.276 181.905 142.085 181.905 141.861C181.905 141.506 182.053 141.214 182.349 140.985C182.645 140.752 183.024 140.636 183.487 140.636C183.988 140.636 184.389 140.761 184.691 141.01C184.995 141.256 185.147 141.578 185.147 141.977H184.649C184.649 141.714 184.538 141.495 184.317 141.321C184.098 141.147 183.822 141.06 183.487 141.06C183.16 141.06 182.897 141.133 182.698 141.28C182.501 141.423 182.403 141.612 182.403 141.844C182.403 142.068 182.485 142.243 182.648 142.367C182.814 142.489 183.114 142.601 183.549 142.703C183.986 142.806 184.313 142.915 184.529 143.031C184.747 143.148 184.909 143.287 185.014 143.451C185.12 143.614 185.172 143.812 185.172 144.044C185.172 144.423 185.018 144.726 184.711 144.953C184.407 145.18 184.008 145.294 183.516 145.294C182.993 145.294 182.568 145.168 182.241 144.916C181.917 144.661 181.756 144.34 181.756 143.953H182.254C182.273 144.244 182.395 144.47 182.619 144.634C182.846 144.794 183.145 144.875 183.516 144.875C183.862 144.875 184.141 144.798 184.354 144.646C184.567 144.494 184.674 144.302 184.674 144.069Z" fill="#F3F0EB"/>
<path d="M194.426 145.211C194.377 145.07 194.345 144.861 194.331 144.584C194.156 144.811 193.934 144.987 193.662 145.111C193.394 145.233 193.109 145.294 192.807 145.294C192.376 145.294 192.025 145.173 191.757 144.933C191.491 144.692 191.359 144.387 191.359 144.019C191.359 143.582 191.54 143.236 191.902 142.982C192.268 142.727 192.775 142.6 193.426 142.6H194.327V142.089C194.327 141.768 194.227 141.516 194.028 141.333C193.831 141.148 193.543 141.055 193.164 141.055C192.818 141.055 192.532 141.144 192.305 141.321C192.078 141.498 191.965 141.711 191.965 141.96L191.466 141.956C191.466 141.599 191.633 141.291 191.965 141.03C192.297 140.768 192.705 140.636 193.189 140.636C193.69 140.636 194.085 140.762 194.372 141.014C194.663 141.263 194.812 141.612 194.821 142.06V144.185C194.821 144.62 194.866 144.945 194.958 145.161V145.211H194.426ZM192.865 144.854C193.198 144.854 193.494 144.774 193.754 144.613C194.017 144.452 194.208 144.238 194.327 143.97V142.982H193.438C192.943 142.987 192.555 143.078 192.276 143.256C191.996 143.43 191.857 143.671 191.857 143.978C191.857 144.23 191.949 144.439 192.135 144.605C192.323 144.771 192.567 144.854 192.865 144.854Z" fill="#F3F0EB"/>
<path d="M197.565 142.923C197.565 142.22 197.72 141.664 198.03 141.255C198.343 140.842 198.766 140.636 199.3 140.636C199.912 140.636 200.377 140.88 200.695 141.367L200.72 140.719H201.185V145.119C201.185 145.698 201.023 146.156 200.699 146.494C200.376 146.831 199.937 147 199.383 147C199.071 147 198.772 146.929 198.487 146.788C198.205 146.65 197.982 146.464 197.818 146.232L198.097 145.933C198.448 146.365 198.866 146.581 199.35 146.581C199.765 146.581 200.089 146.458 200.322 146.211C200.554 145.968 200.675 145.629 200.683 145.194V144.63C200.365 145.072 199.901 145.294 199.292 145.294C198.772 145.294 198.354 145.086 198.038 144.671C197.723 144.256 197.565 143.696 197.565 142.99V142.923ZM198.068 143.011C198.068 143.583 198.182 144.036 198.412 144.368C198.642 144.697 198.966 144.862 199.383 144.862C199.995 144.862 200.428 144.588 200.683 144.04V141.952C200.567 141.664 200.399 141.446 200.181 141.296C199.962 141.144 199.699 141.068 199.392 141.068C198.974 141.068 198.649 141.232 198.416 141.562C198.184 141.888 198.068 142.371 198.068 143.011Z" fill="#F3F0EB"/>
<path d="M206.171 141.143C206.066 141.123 205.954 141.113 205.835 141.113C205.525 141.113 205.262 141.201 205.046 141.375C204.833 141.547 204.681 141.797 204.59 142.126V145.211H204.096V140.719H204.581L204.59 141.433C204.853 140.902 205.275 140.636 205.856 140.636C205.994 140.636 206.104 140.654 206.184 140.69L206.171 141.143Z" fill="#F3F0EB"/>
<path d="M209.123 145.211H208.625V140.719H209.123V145.211ZM209.381 138.884H209.983L209.024 140.047H208.588L209.381 138.884Z" fill="#F3F0EB"/>
<path d="M213.744 144.875C214.09 144.875 214.379 144.778 214.612 144.584C214.847 144.387 214.974 144.134 214.994 143.824H215.471C215.457 144.098 215.372 144.349 215.214 144.576C215.056 144.8 214.846 144.976 214.583 145.103C214.323 145.23 214.043 145.294 213.744 145.294C213.155 145.294 212.687 145.089 212.341 144.679C211.998 144.27 211.826 143.719 211.826 143.027V142.878C211.826 142.435 211.904 142.043 212.059 141.703C212.214 141.363 212.435 141.1 212.723 140.914C213.014 140.729 213.353 140.636 213.74 140.636C214.233 140.636 214.638 140.783 214.956 141.076C215.278 141.369 215.449 141.756 215.471 142.234H214.994C214.972 141.883 214.844 141.599 214.612 141.383C214.382 141.167 214.092 141.06 213.74 141.06C213.292 141.06 212.943 141.221 212.694 141.545C212.448 141.869 212.325 142.323 212.325 142.907V143.052C212.325 143.625 212.448 144.072 212.694 144.393C212.943 144.714 213.293 144.875 213.744 144.875Z" fill="#F3F0EB"/>
<path d="M217.809 142.899C217.809 142.467 217.892 142.078 218.058 141.732C218.227 141.386 218.463 141.118 218.768 140.927C219.075 140.733 219.422 140.636 219.81 140.636C220.408 140.636 220.892 140.846 221.263 141.267C221.634 141.685 221.819 142.24 221.819 142.932V143.036C221.819 143.47 221.735 143.862 221.566 144.21C221.4 144.556 221.165 144.823 220.86 145.012C220.556 145.2 220.208 145.294 219.818 145.294C219.223 145.294 218.739 145.085 218.365 144.667C217.994 144.246 217.809 143.69 217.809 142.998V142.899ZM218.307 143.036C218.307 143.572 218.445 144.014 218.722 144.36C219.002 144.703 219.367 144.875 219.818 144.875C220.266 144.875 220.629 144.703 220.906 144.36C221.185 144.014 221.325 143.559 221.325 142.994V142.899C221.325 142.555 221.261 142.241 221.134 141.956C221.007 141.671 220.828 141.451 220.599 141.296C220.369 141.138 220.106 141.06 219.81 141.06C219.367 141.06 219.006 141.234 218.726 141.583C218.447 141.929 218.307 142.382 218.307 142.944V143.036Z" fill="#F3F0EB"/>
<path d="M225.02 145.211H224.522V138.834H225.02V145.211Z" fill="#F3F0EB"/>
<path d="M230.824 145.211C230.774 145.07 230.743 144.861 230.729 144.584C230.554 144.811 230.332 144.987 230.06 145.111C229.792 145.233 229.507 145.294 229.205 145.294C228.773 145.294 228.423 145.173 228.155 144.933C227.889 144.692 227.756 144.387 227.756 144.019C227.756 143.582 227.938 143.236 228.3 142.982C228.666 142.727 229.173 142.6 229.824 142.6H230.725V142.089C230.725 141.768 230.625 141.516 230.426 141.333C230.229 141.148 229.941 141.055 229.562 141.055C229.216 141.055 228.93 141.144 228.703 141.321C228.476 141.498 228.363 141.711 228.363 141.96L227.864 141.956C227.864 141.599 228.03 141.291 228.363 141.03C228.695 140.768 229.103 140.636 229.587 140.636C230.088 140.636 230.482 140.762 230.77 141.014C231.061 141.263 231.21 141.612 231.219 142.06V144.185C231.219 144.62 231.264 144.945 231.356 145.161V145.211H230.824ZM229.263 144.854C229.595 144.854 229.892 144.774 230.152 144.613C230.415 144.452 230.606 144.238 230.725 143.97V142.982H229.836C229.341 142.987 228.953 143.078 228.674 143.256C228.394 143.43 228.255 143.671 228.255 143.978C228.255 144.23 228.347 144.439 228.533 144.605C228.721 144.771 228.964 144.854 229.263 144.854Z" fill="#F3F0EB"/>
<path d="M236.852 144.069C236.852 143.823 236.753 143.625 236.554 143.476C236.357 143.326 236.06 143.21 235.661 143.127C235.262 143.041 234.952 142.944 234.731 142.836C234.512 142.726 234.349 142.591 234.241 142.434C234.136 142.276 234.083 142.085 234.083 141.861C234.083 141.506 234.232 141.214 234.528 140.985C234.824 140.752 235.203 140.636 235.665 140.636C236.166 140.636 236.567 140.761 236.869 141.01C237.173 141.256 237.326 141.578 237.326 141.977H236.827C236.827 141.714 236.717 141.495 236.495 141.321C236.277 141.147 236 141.06 235.665 141.06C235.339 141.06 235.076 141.133 234.876 141.28C234.68 141.423 234.582 141.612 234.582 141.844C234.582 142.068 234.663 142.243 234.827 142.367C234.993 142.489 235.293 142.601 235.727 142.703C236.165 142.806 236.491 142.915 236.707 143.031C236.926 143.148 237.088 143.287 237.193 143.451C237.298 143.614 237.351 143.812 237.351 144.044C237.351 144.423 237.197 144.726 236.89 144.953C236.585 145.18 236.187 145.294 235.694 145.294C235.171 145.294 234.746 145.168 234.42 144.916C234.096 144.661 233.934 144.34 233.934 143.953H234.432C234.452 144.244 234.573 144.47 234.798 144.634C235.024 144.794 235.323 144.875 235.694 144.875C236.04 144.875 236.32 144.798 236.533 144.646C236.746 144.494 236.852 144.302 236.852 144.069Z" fill="#F3F0EB"/>
<path fill-rule="evenodd" clip-rule="evenodd" d="M85.805 75.5456C92.9001 75.5456 98.6531 69.7912 98.6531 62.6912C98.6531 55.5912 92.9001 49.8368 85.805 49.8368C78.7099 49.8368 72.9569 55.5912 72.9569 62.6912C72.9569 69.7912 78.7099 75.5456 85.805 75.5456ZM85.805 77.246C93.8399 77.246 100.353 70.7296 100.353 62.6912C100.353 54.6528 93.8399 48.1364 85.805 48.1364C77.7701 48.1364 71.2565 54.6528 71.2565 62.6912C71.2565 70.7296 77.7701 77.246 85.805 77.246Z" fill="#F3F0EB"/>
<path fill-rule="evenodd" clip-rule="evenodd" d="M138.639 74.3474C148.694 74.3474 156.847 66.1922 156.847 56.1307C156.847 46.0691 148.694 37.9139 138.639 37.9139C128.584 37.9139 120.431 46.0691 120.431 56.1307C120.431 66.1922 128.584 74.3474 138.639 74.3474ZM138.639 76.0478C149.634 76.0478 158.547 67.1306 158.547 56.1307C158.547 45.1308 149.634 36.2136 138.639 36.2136C127.644 36.2136 118.73 45.1308 118.73 56.1307C118.73 67.1306 127.644 76.0478 138.639 76.0478Z" fill="#F3F0EB"/>
<path fill-rule="evenodd" clip-rule="evenodd" d="M109.664 29.5108L114.877 5.63127C115.119 5.19428 115.586 4.73919 116.331 4.2963C117.117 3.82951 118.152 3.41275 119.393 3.05846C121.876 2.35017 125.077 1.92269 128.505 1.79101C135.173 1.53492 142.469 2.40412 146.8 4.3133L149.363 26.2296C149.402 26.5627 149.633 26.8419 149.953 26.9421C151.037 27.2815 152.663 27.9455 153.999 28.8157C154.667 29.2508 155.227 29.7152 155.613 30.1872C155.999 30.6592 156.166 31.0834 156.166 31.4619C156.166 31.9423 156.038 32.1738 155.929 32.2939C155.812 32.423 155.617 32.53 155.304 32.5826C154.645 32.6933 153.763 32.5089 153.129 32.2669C153.099 32.2553 153.068 32.2454 153.036 32.2373L150.941 31.7042C150.674 31.6362 150.39 31.702 150.18 31.8808C149.97 32.0596 149.86 32.3291 149.884 32.6037L150.408 38.4679C150.45 38.9356 150.863 39.2809 151.331 39.2391C151.798 39.1973 152.144 38.7843 152.102 38.3167L151.685 33.6481L152.571 33.8734C153.335 34.1585 154.521 34.4383 155.586 34.2595C156.146 34.1655 156.736 33.9327 157.186 33.4387C157.644 32.9358 157.866 32.2609 157.866 31.4619C157.866 30.5609 157.466 29.7678 156.93 29.1114C156.393 28.455 155.677 27.8799 154.927 27.3909C153.635 26.5492 152.137 25.8969 150.989 25.4948L148.433 3.6415C148.399 3.35171 148.219 3.09955 147.956 2.9735C143.32 0.752557 135.43 -0.176613 128.44 0.0918894C124.929 0.226755 121.583 0.665571 118.927 1.42332C117.599 1.80206 116.416 2.26826 115.463 2.83437C114.517 3.3962 113.735 4.09416 113.307 4.96474C113.277 5.02628 113.254 5.09126 113.24 5.15825L108.135 28.5402L97.2387 29.5485C95.7003 29.6689 93.6764 29.7894 91.4313 29.9232L91.4312 29.9232L90.7546 29.9635C88.2426 30.1134 85.5026 30.2804 82.9083 30.481C80.3171 30.6813 77.8551 30.9163 75.9024 31.2039C74.9271 31.3475 74.0617 31.5067 73.3631 31.6858C72.7017 31.8554 72.0674 32.0714 71.656 32.3854C70.046 33.6146 69.0075 35.4587 68.3554 37.5376C67.7023 39.6197 67.4161 42.0017 67.3559 44.3975C67.2354 49.1886 68.0158 54.1745 68.725 57.2425C68.8307 57.7 69.2873 57.9852 69.7448 57.8794C70.2023 57.7737 70.4874 57.3171 70.3817 56.8596C69.6942 53.8857 68.9398 49.0481 69.0557 44.4403C69.1136 42.1368 69.3884 39.9255 69.9778 38.0465C70.5682 36.1642 71.4537 34.6792 72.6878 33.737C72.8002 33.6512 73.1314 33.5006 73.7855 33.3329C74.4023 33.1747 75.2022 33.0257 76.1501 32.8861C78.0435 32.6072 80.4587 32.3758 83.0394 32.1763C85.6169 31.977 88.3433 31.8108 90.8559 31.6608L91.536 31.6203L91.5363 31.6203C93.7783 31.4868 95.8213 31.3651 97.3773 31.2433L97.3773 31.2434L97.3893 31.2422L108.911 30.176C109.28 30.1419 109.585 29.8728 109.664 29.5108ZM117.736 3.95631C117.267 3.95631 116.886 4.33695 116.886 4.8065C116.886 5.27604 117.267 5.65668 117.736 5.65668H143.923C144.392 5.65668 144.773 5.27604 144.773 4.8065C144.773 4.33695 144.392 3.95631 143.923 3.95631H117.736ZM117.782 57.9001C118.25 57.8751 118.61 57.4747 118.585 57.0058C118.56 56.537 118.16 56.1771 117.691 56.2021L103.347 56.9663C102.972 53.299 101.699 50.5629 99.8452 48.5717C97.8615 46.4406 95.278 45.2311 92.6108 44.5968C87.3054 43.3352 81.4796 44.3033 78.6919 45.0564C78.2386 45.1789 77.9704 45.6456 78.0928 46.0989C78.2153 46.5522 78.682 46.8204 79.1353 46.698C81.7926 45.9801 87.3027 45.0823 92.2174 46.251C94.6602 46.8319 96.9078 47.9116 98.6005 49.7302C100.285 51.5394 101.484 54.1484 101.719 57.9122C101.748 58.3773 102.146 58.733 102.613 58.7082L117.782 57.9001Z" fill="#F3F0EB"/>
<path fill-rule="evenodd" clip-rule="evenodd" d="M146.542 34.1279C144.151 33.4876 137.72 32.3274 130.365 35.0849C123.71 37.5796 119.775 43.7024 117.057 47.9311C116.699 48.4886 116.361 49.0131 116.042 49.492C115.782 49.8827 115.254 49.9882 114.863 49.7277C114.472 49.4671 114.367 48.9393 114.627 48.5486C114.926 48.1002 115.249 47.5958 115.599 47.0497C118.281 42.8575 122.538 36.203 129.768 33.4927C137.572 30.5671 144.392 31.792 146.982 32.4854C147.436 32.6069 147.705 33.073 147.583 33.5266C147.462 33.9802 146.996 34.2494 146.542 34.1279Z" fill="#F3F0EB"/>
<path fill-rule="evenodd" clip-rule="evenodd" d="M95.4128 14.383C93.871 13.695 92.1454 14.1001 91.5114 14.383L90.8185 12.8302C91.7159 12.4298 93.972 11.8781 96.1056 12.8302L95.4128 14.383ZM94.3123 14.1191V30.0068H92.6119V14.1191H94.3123Z" fill="#F3F0EB"/>
<path d="M25.0905 92.2153C50.9472 81.0789 110.428 66.0349 195.748 83.6297C206.154 85.7757 211.67 86.8002 213.242 87.0839C213.867 87.1919 213.889 87.2008 213.242 87.0839C204.984 85.658 91.5414 66.9506 25.0905 92.2153Z" fill="#F3F0EB"/>
</g>
<path d="M35.8636 114.718H22.0961L18.968 123.118H17.8288L28.3523 95.0036H29.6267L40.1503 123.118H39.011L35.8636 114.718ZM22.4823 113.676H35.4774L28.9895 96.2587L22.4823 113.676Z" fill="#A0BF1D"/>
<path d="M76.1312 120.106C75.4231 121.084 74.1809 121.895 72.4045 122.539C70.628 123.182 68.6713 123.504 66.5345 123.504C64.4491 123.504 62.5889 122.996 60.9541 121.979C59.3192 120.962 58.0384 119.526 57.1115 117.673C56.1976 115.819 55.7277 113.721 55.702 111.378V106.55C55.702 104.246 56.1461 102.18 57.0343 100.352C57.9225 98.5243 59.1712 97.1147 60.7803 96.1235C62.3894 95.1194 64.198 94.6174 66.2062 94.6174C68.9996 94.6174 71.2717 95.3318 73.0224 96.7607C74.7859 98.1896 75.8093 100.14 76.0925 102.611H75.0498C74.7023 100.372 73.769 98.653 72.25 97.4558C70.731 96.2587 68.7164 95.6601 66.2062 95.6601C63.3742 95.6601 61.0892 96.6706 59.3514 98.6916C57.6136 100.713 56.7447 103.371 56.7447 106.666V111.146C56.7447 113.347 57.1502 115.31 57.9611 117.035C58.785 118.76 59.9371 120.099 61.4175 121.052C62.9107 121.991 64.6164 122.461 66.5345 122.461C68.4139 122.461 70.1582 122.185 71.7673 121.631C73.3764 121.077 74.4834 120.408 75.0885 119.623V111.436H66.4958V110.374H76.1312V120.106Z" fill="#A0BF1D"/>
<path d="M106.03 111.088H96.2784V123.118H95.2357V95.0036H104.195C107.014 95.0036 109.254 95.7309 110.915 97.1855C112.588 98.6401 113.425 100.616 113.425 103.113C113.425 105.031 112.826 106.711 111.629 108.153C110.445 109.582 108.932 110.47 107.092 110.818L114.603 122.848V123.118H113.502L106.03 111.088ZM96.2784 110.045H105.141C107.304 110.045 109.048 109.389 110.374 108.076C111.713 106.763 112.382 105.109 112.382 103.113C112.382 100.925 111.642 99.2001 110.162 97.9386C108.694 96.677 106.68 96.0463 104.118 96.0463H96.2784V110.045Z" fill="#A0BF1D"/>
<path d="M152.978 111.165C152.978 113.598 152.54 115.755 151.665 117.634C150.803 119.501 149.567 120.949 147.958 121.979C146.349 122.996 144.495 123.504 142.397 123.504C139.23 123.504 136.668 122.378 134.712 120.125C132.755 117.872 131.777 114.834 131.777 111.011V106.956C131.777 104.536 132.208 102.386 133.07 100.507C133.946 98.6273 135.188 97.1791 136.797 96.1621C138.419 95.1323 140.273 94.6174 142.358 94.6174C144.456 94.6174 146.31 95.1323 147.919 96.1621C149.541 97.1791 150.79 98.6337 151.665 100.526C152.54 102.405 152.978 104.549 152.978 106.956V111.165ZM151.935 106.917C151.935 103.519 151.073 100.796 149.348 98.7496C147.623 96.6899 145.293 95.6601 142.358 95.6601C139.462 95.6601 137.151 96.6835 135.426 98.7302C133.701 100.764 132.839 103.538 132.839 107.053V111.165C132.839 113.405 133.225 115.388 133.997 117.113C134.782 118.825 135.896 120.144 137.338 121.071C138.779 121.998 140.466 122.461 142.397 122.461C145.332 122.461 147.655 121.438 149.367 119.391C151.079 117.344 151.935 114.551 151.935 111.011V106.917Z" fill="#A0BF1D"/>
<path d="M172.334 122.075H186.758V123.118H171.272V95.0036H172.334V122.075Z" fill="#A0BF1D"/>
<path d="M221.445 95.0036V114.042C221.445 117.016 220.582 119.34 218.857 121.013C217.132 122.674 214.796 123.504 211.848 123.504C208.9 123.504 206.564 122.674 204.839 121.013C203.114 119.34 202.245 117.042 202.232 114.12V95.0036H203.275V114.004C203.275 116.604 204.054 118.664 205.611 120.183C207.182 121.702 209.261 122.461 211.848 122.461C214.436 122.461 216.508 121.702 218.066 120.183C219.623 118.664 220.402 116.598 220.402 113.985V95.0036H221.445Z" fill="#A0BF1D"/>
<path d="M15.7441 139.849C15.6996 139.722 15.6711 139.535 15.6587 139.288C15.5028 139.491 15.3035 139.648 15.0609 139.759C14.8208 139.868 14.5658 139.923 14.2959 139.923C13.9098 139.923 13.5966 139.815 13.3565 139.6C13.1188 139.384 13 139.112 13 138.783C13 138.392 13.1621 138.082 13.4864 137.855C13.8132 137.627 14.2675 137.513 14.8492 137.513H15.655V137.056C15.655 136.769 15.5659 136.544 15.3877 136.38C15.2119 136.214 14.9544 136.132 14.6153 136.132C14.3059 136.132 14.0496 136.211 13.8466 136.369C13.6436 136.528 13.5421 136.718 13.5421 136.941L13.0965 136.937C13.0965 136.618 13.2451 136.342 13.5421 136.109C13.8392 135.874 14.2044 135.757 14.6376 135.757C15.0856 135.757 15.4384 135.869 15.6959 136.094C15.9558 136.317 16.0895 136.629 16.0969 137.03V138.931C16.0969 139.32 16.1378 139.611 16.2194 139.804V139.849H15.7441ZM14.3479 139.529C14.645 139.529 14.9099 139.457 15.1426 139.314C15.3778 139.17 15.5486 138.978 15.655 138.738V137.855H14.8604C14.4172 137.859 14.0707 137.941 13.8206 138.1C13.5706 138.256 13.4456 138.471 13.4456 138.746C13.4456 138.971 13.5285 139.158 13.6944 139.306C13.8627 139.455 14.0806 139.529 14.3479 139.529Z" fill="#A0BF1D"/>
<path d="M19.2277 139.849H18.7821V134.145H19.2277V139.849Z" fill="#A0BF1D"/>
<path d="M24.4676 139.34C24.2003 139.729 23.7732 139.923 23.1865 139.923C22.7583 139.923 22.4327 139.799 22.2099 139.552C21.9871 139.301 21.8732 138.933 21.8683 138.445V135.831H22.3102V138.389C22.3102 139.154 22.6196 139.537 23.2385 139.537C23.8822 139.537 24.2894 139.271 24.4602 138.738V135.831H24.9058V139.849H24.475L24.4676 139.34Z" fill="#A0BF1D"/>
<path d="M27.331 137.803C27.331 137.174 27.4697 136.676 27.7469 136.31C28.0267 135.941 28.4054 135.757 28.8832 135.757C29.4303 135.757 29.8462 135.974 30.1309 136.41L30.1532 135.831H30.569V139.767C30.569 140.284 30.4242 140.694 30.1346 140.996C29.845 141.298 29.4526 141.449 28.9575 141.449C28.6777 141.449 28.4104 141.386 28.1554 141.26C27.9029 141.136 27.7036 140.97 27.5575 140.762L27.8063 140.495C28.1207 140.881 28.4945 141.074 28.9278 141.074C29.2991 141.074 29.5887 140.964 29.7967 140.743C30.0046 140.526 30.1123 140.222 30.1197 139.834V139.329C29.835 139.725 29.4204 139.923 28.8758 139.923C28.4104 139.923 28.0366 139.737 27.7544 139.366C27.4721 138.995 27.331 138.493 27.331 137.862V137.803ZM27.7803 137.881C27.7803 138.393 27.8831 138.798 28.0886 139.095C28.294 139.389 28.5837 139.537 28.9575 139.537C29.5046 139.537 29.892 139.292 30.1197 138.801V136.934C30.0158 136.676 29.866 136.481 29.6704 136.347C29.4749 136.211 29.2397 136.143 28.9649 136.143C28.5911 136.143 28.3002 136.29 28.0923 136.585C27.8843 136.877 27.7803 137.309 27.7803 137.881Z" fill="#A0BF1D"/>
<path d="M35.757 139.34C35.4896 139.729 35.0626 139.923 34.4759 139.923C34.0476 139.923 33.7221 139.799 33.4993 139.552C33.2765 139.301 33.1626 138.933 33.1577 138.445V135.831H33.5996V138.389C33.5996 139.154 33.909 139.537 34.5279 139.537C35.1715 139.537 35.5788 139.271 35.7496 138.738V135.831H36.1952V139.849H35.7644L35.757 139.34Z" fill="#A0BF1D"/>
<path d="M40.3545 139.923C40.0129 139.923 39.7035 139.839 39.4262 139.67C39.1514 139.502 38.9373 139.268 38.7838 138.969C38.6303 138.667 38.5536 138.329 38.5536 137.955V137.795C38.5536 137.409 38.6278 137.061 38.7764 136.752C38.9274 136.442 39.1366 136.2 39.4039 136.024C39.6713 135.846 39.9609 135.757 40.2728 135.757C40.7605 135.757 41.1467 135.924 41.4314 136.258C41.7186 136.59 41.8621 137.044 41.8621 137.621V137.869H38.9955V137.955C38.9955 138.41 39.1254 138.79 39.3854 139.095C39.6478 139.397 39.977 139.548 40.3731 139.548C40.6108 139.548 40.8199 139.504 41.0007 139.418C41.1838 139.331 41.3497 139.193 41.4982 139.002L41.7767 139.214C41.45 139.686 40.9759 139.923 40.3545 139.923ZM40.2728 136.135C39.9386 136.135 39.6564 136.258 39.4262 136.503C39.1985 136.748 39.0598 137.077 39.0103 137.491H41.4203V137.442C41.4079 137.056 41.2977 136.742 41.0898 136.499C40.8818 136.257 40.6095 136.135 40.2728 136.135Z" fill="#A0BF1D"/>
<path d="M44.6699 139.849H44.2243V134.145H44.6699V139.849Z" fill="#A0BF1D"/>
<path d="M50.4412 137.803C50.4412 137.179 50.5799 136.682 50.8571 136.314C51.1369 135.942 51.5156 135.757 51.9934 135.757C52.5356 135.757 52.949 135.971 53.2337 136.399V134.145H53.6755V139.849H53.2597L53.2411 139.314C52.9564 139.72 52.538 139.923 51.986 139.923C51.5231 139.923 51.1493 139.737 50.8646 139.366C50.5824 138.992 50.4412 138.488 50.4412 137.855V137.803ZM50.8906 137.881C50.8906 138.393 50.9933 138.798 51.1988 139.095C51.4042 139.389 51.6939 139.537 52.0677 139.537C52.6148 139.537 53.0034 139.295 53.2337 138.813V136.926C53.0034 136.404 52.6172 136.143 52.0751 136.143C51.7013 136.143 51.4104 136.29 51.2025 136.585C50.9945 136.877 50.8906 137.309 50.8906 137.881Z" fill="#A0BF1D"/>
<path d="M57.846 139.923C57.5044 139.923 57.195 139.839 56.9177 139.67C56.6429 139.502 56.4288 139.268 56.2753 138.969C56.1218 138.667 56.0451 138.329 56.0451 137.955V137.795C56.0451 137.409 56.1194 137.061 56.2679 136.752C56.4189 136.442 56.6281 136.2 56.8954 136.024C57.1628 135.846 57.4524 135.757 57.7644 135.757C58.252 135.757 58.6382 135.924 58.9229 136.258C59.2101 136.59 59.3537 137.044 59.3537 137.621V137.869H56.487V137.955C56.487 138.41 56.6169 138.79 56.8769 139.095C57.1393 139.397 57.4685 139.548 57.8646 139.548C58.1023 139.548 58.3114 139.504 58.4922 139.418C58.6754 139.331 58.8412 139.193 58.9897 139.002L59.2682 139.214C58.9415 139.686 58.4674 139.923 57.846 139.923ZM57.7644 136.135C57.4302 136.135 57.1479 136.258 56.9177 136.503C56.69 136.748 56.5513 137.077 56.5018 137.491H58.9118V137.442C58.8994 137.056 58.7892 136.742 58.5813 136.499C58.3733 136.257 58.101 136.135 57.7644 136.135Z" fill="#A0BF1D"/>
<path d="M65.3627 135.831L65.3775 136.484C65.5261 136.242 65.7118 136.06 65.9345 135.938C66.1573 135.817 66.4049 135.757 66.6772 135.757C67.311 135.757 67.7132 136.016 67.884 136.536C68.0276 136.286 68.2195 136.094 68.4596 135.961C68.6997 135.825 68.9646 135.757 69.2543 135.757C70.1157 135.757 70.5552 136.227 70.5725 137.168V139.849H70.1269V137.201C70.1244 136.842 70.0464 136.576 69.8929 136.403C69.7419 136.229 69.4944 136.143 69.1503 136.143C68.8309 136.148 68.5611 136.252 68.3408 136.455C68.1205 136.655 67.9979 136.9 67.9732 137.19V139.849H67.5276V137.168C67.5251 136.823 67.4434 136.567 67.2825 136.399C67.124 136.228 66.879 136.143 66.5472 136.143C66.2675 136.143 66.0274 136.223 65.8269 136.384C65.6263 136.542 65.4778 136.779 65.3813 137.093V139.849H64.9357V135.831H65.3627Z" fill="#A0BF1D"/>
<path d="M75.6825 139.849C75.6379 139.722 75.6094 139.535 75.597 139.288C75.4411 139.491 75.2418 139.648 74.9992 139.759C74.7591 139.868 74.5041 139.923 74.2343 139.923C73.8481 139.923 73.5349 139.815 73.2948 139.6C73.0571 139.384 72.9383 139.112 72.9383 138.783C72.9383 138.392 73.1005 138.082 73.4248 137.855C73.7515 137.627 74.2058 137.513 74.7875 137.513H75.5933V137.056C75.5933 136.769 75.5042 136.544 75.326 136.38C75.1502 136.214 74.8928 136.132 74.5536 136.132C74.2442 136.132 73.9879 136.211 73.785 136.369C73.582 136.528 73.4805 136.718 73.4805 136.941L73.0349 136.937C73.0349 136.618 73.1834 136.342 73.4805 136.109C73.7775 135.874 74.1427 135.757 74.5759 135.757C75.024 135.757 75.3767 135.869 75.6342 136.094C75.8941 136.317 76.0278 136.629 76.0352 137.03V138.931C76.0352 139.32 76.0761 139.611 76.1578 139.804V139.849H75.6825ZM74.2862 139.529C74.5833 139.529 74.8482 139.457 75.0809 139.314C75.3161 139.17 75.4869 138.978 75.5933 138.738V137.855H74.7987C74.3556 137.859 74.009 137.941 73.759 138.1C73.5089 138.256 73.3839 138.471 73.3839 138.746C73.3839 138.971 73.4668 139.158 73.6327 139.306C73.801 139.455 74.0189 139.529 74.2862 139.529ZM75.1626 134.145H75.701L74.8432 135.185H74.4533L75.1626 134.145Z" fill="#A0BF1D"/>
<path d="M78.4902 137.803C78.4902 137.174 78.6288 136.676 78.9061 136.31C79.1858 135.941 79.567 135.757 80.0498 135.757C80.5919 135.757 81.0041 135.963 81.2863 136.377L81.3086 135.831H81.7245V141.393H81.2789V139.351C80.9868 139.732 80.5746 139.923 80.0423 139.923C79.572 139.923 79.1957 139.737 78.9135 139.366C78.6313 138.995 78.4902 138.493 78.4902 137.862V137.803ZM78.9395 137.881C78.9395 138.4 79.0434 138.809 79.2514 139.106C79.4618 139.401 79.7527 139.548 80.124 139.548C80.6563 139.548 81.0412 139.316 81.2789 138.853V136.885C81.1675 136.645 81.0127 136.461 80.8147 136.332C80.6191 136.201 80.3914 136.135 80.1315 136.135C79.7576 136.135 79.4655 136.284 79.2551 136.581C79.0447 136.875 78.9395 137.309 78.9395 137.881Z" fill="#A0BF1D"/>
<path d="M86.9384 139.34C86.6711 139.729 86.244 139.923 85.6573 139.923C85.229 139.923 84.9035 139.799 84.6807 139.552C84.4579 139.301 84.344 138.933 84.3391 138.445V135.831H84.781V138.389C84.781 139.154 85.0904 139.537 85.7093 139.537C86.3529 139.537 86.7602 139.271 86.931 138.738V135.831H87.3766V139.849H86.9458L86.9384 139.34Z" fill="#A0BF1D"/>
<path d="M90.4777 139.849H90.0321V135.831H90.4777V139.849ZM89.9541 134.669C89.9541 134.584 89.9813 134.514 90.0358 134.457C90.0902 134.397 90.1645 134.368 90.2586 134.368C90.3526 134.368 90.4269 134.397 90.4814 134.457C90.5383 134.514 90.5668 134.584 90.5668 134.669C90.5668 134.753 90.5383 134.823 90.4814 134.88C90.4269 134.937 90.3526 134.966 90.2586 134.966C90.1645 134.966 90.0902 134.937 90.0358 134.88C89.9813 134.823 89.9541 134.753 89.9541 134.669Z" fill="#A0BF1D"/>
<path d="M93.5564 135.831L93.5713 136.518C93.7223 136.27 93.9104 136.082 94.1357 135.953C94.361 135.822 94.6098 135.757 94.8821 135.757C95.3128 135.757 95.6334 135.878 95.8438 136.12C96.0543 136.363 96.1607 136.727 96.1632 137.212V139.849H95.7213V137.208C95.7188 136.849 95.6421 136.582 95.4911 136.406C95.3425 136.231 95.1037 136.143 94.7744 136.143C94.4996 136.143 94.2558 136.229 94.0429 136.403C93.8325 136.573 93.6765 136.805 93.575 137.097V139.849H93.1331V135.831H93.5564Z" fill="#A0BF1D"/>
<path d="M101.295 139.849C101.251 139.722 101.222 139.535 101.21 139.288C101.054 139.491 100.855 139.648 100.612 139.759C100.372 139.868 100.117 139.923 99.8473 139.923C99.4611 139.923 99.1479 139.815 98.9078 139.6C98.6701 139.384 98.5513 139.112 98.5513 138.783C98.5513 138.392 98.7134 138.082 99.0377 137.855C99.3645 137.627 99.8188 137.513 100.401 137.513H101.206V137.056C101.206 136.769 101.117 136.544 100.939 136.38C100.763 136.214 100.506 136.132 100.167 136.132C99.8572 136.132 99.6009 136.211 99.3979 136.369C99.1949 136.528 99.0934 136.718 99.0934 136.941L98.6479 136.937C98.6479 136.618 98.7964 136.342 99.0934 136.109C99.3905 135.874 99.7557 135.757 100.189 135.757C100.637 135.757 100.99 135.869 101.247 136.094C101.507 136.317 101.641 136.629 101.648 137.03V138.931C101.648 139.32 101.689 139.611 101.771 139.804V139.849H101.295ZM99.8992 139.529C100.196 139.529 100.461 139.457 100.694 139.314C100.929 139.17 101.1 138.978 101.206 138.738V137.855H100.412C99.9686 137.859 99.622 137.941 99.3719 138.1C99.1219 138.256 98.9969 138.471 98.9969 138.746C98.9969 138.971 99.0798 139.158 99.2457 139.306C99.414 139.455 99.6319 139.529 99.8992 139.529Z" fill="#A0BF1D"/>
<path d="M106.688 138.827C106.688 138.607 106.599 138.43 106.42 138.296C106.244 138.163 105.978 138.059 105.622 137.984C105.265 137.908 104.988 137.821 104.79 137.725C104.595 137.626 104.448 137.505 104.352 137.364C104.258 137.223 104.211 137.052 104.211 136.852C104.211 136.535 104.343 136.274 104.608 136.068C104.873 135.86 105.212 135.757 105.626 135.757C106.074 135.757 106.433 135.868 106.702 136.091C106.975 136.311 107.111 136.599 107.111 136.956H106.665C106.665 136.721 106.566 136.525 106.368 136.369C106.173 136.213 105.925 136.135 105.626 136.135C105.333 136.135 105.098 136.201 104.92 136.332C104.744 136.461 104.656 136.629 104.656 136.837C104.656 137.038 104.729 137.194 104.876 137.305C105.024 137.414 105.293 137.514 105.681 137.606C106.072 137.697 106.365 137.795 106.558 137.899C106.753 138.003 106.898 138.128 106.992 138.274C107.086 138.42 107.133 138.597 107.133 138.805C107.133 139.144 106.996 139.415 106.721 139.618C106.449 139.821 106.092 139.923 105.652 139.923C105.184 139.923 104.804 139.81 104.512 139.585C104.222 139.357 104.077 139.07 104.077 138.723H104.523C104.54 138.983 104.649 139.186 104.85 139.332C105.053 139.476 105.32 139.548 105.652 139.548C105.961 139.548 106.211 139.48 106.402 139.344C106.592 139.207 106.688 139.035 106.688 138.827Z" fill="#A0BF1D"/>
<path d="M114.431 139.923C114.089 139.923 113.78 139.839 113.502 139.67C113.228 139.502 113.014 139.268 112.86 138.969C112.707 138.667 112.63 138.329 112.63 137.955V137.795C112.63 137.409 112.704 137.061 112.853 136.752C113.004 136.442 113.213 136.2 113.48 136.024C113.748 135.846 114.037 135.757 114.349 135.757C114.837 135.757 115.223 135.924 115.508 136.258C115.795 136.59 115.938 137.044 115.938 137.621V137.869H113.072V137.955C113.072 138.41 113.202 138.79 113.462 139.095C113.724 139.397 114.053 139.548 114.449 139.548C114.687 139.548 114.896 139.504 115.077 139.418C115.26 139.331 115.426 139.193 115.574 139.002L115.853 139.214C115.526 139.686 115.052 139.923 114.431 139.923ZM114.349 136.135C114.015 136.135 113.733 136.258 113.502 136.503C113.275 136.748 113.136 137.077 113.087 137.491H115.497V137.442C115.484 137.056 115.374 136.742 115.166 136.499C114.958 136.257 114.686 136.135 114.349 136.135Z" fill="#A0BF1D"/>
<path d="M122.04 139.849H121.595V135.831H122.04V139.849ZM121.517 134.669C121.517 134.584 121.544 134.514 121.598 134.457C121.653 134.397 121.727 134.368 121.821 134.368C121.915 134.368 121.99 134.397 122.044 134.457C122.101 134.514 122.129 134.584 122.129 134.669C122.129 134.753 122.101 134.823 122.044 134.88C121.99 134.937 121.915 134.966 121.821 134.966C121.727 134.966 121.653 134.937 121.598 134.88C121.544 134.823 121.517 134.753 121.517 134.669Z" fill="#A0BF1D"/>
<path d="M125.1 135.831L125.115 136.484C125.264 136.242 125.45 136.06 125.672 135.938C125.895 135.817 126.143 135.757 126.415 135.757C127.049 135.757 127.451 136.016 127.622 136.536C127.765 136.286 127.957 136.094 128.197 135.961C128.438 135.825 128.702 135.757 128.992 135.757C129.854 135.757 130.293 136.227 130.31 137.168V139.849H129.865V137.201C129.862 136.842 129.784 136.576 129.631 136.403C129.48 136.229 129.232 136.143 128.888 136.143C128.569 136.148 128.299 136.252 128.079 136.455C127.858 136.655 127.736 136.9 127.711 137.19V139.849H127.265V137.168C127.263 136.823 127.181 136.567 127.02 136.399C126.862 136.228 126.617 136.143 126.285 136.143C126.005 136.143 125.765 136.223 125.565 136.384C125.364 136.542 125.216 136.779 125.119 137.093V139.849H124.673V135.831H125.1Z" fill="#A0BF1D"/>
<path d="M136.115 137.881C136.115 138.507 135.976 139.004 135.699 139.373C135.421 139.74 135.05 139.923 134.585 139.923C134.035 139.923 133.614 139.73 133.322 139.344V141.393H132.88V135.831H133.293L133.315 136.399C133.604 135.971 134.024 135.757 134.574 135.757C135.054 135.757 135.43 135.938 135.702 136.302C135.977 136.666 136.115 137.171 136.115 137.817V137.881ZM135.669 137.803C135.669 137.29 135.564 136.885 135.353 136.588C135.143 136.291 134.85 136.143 134.473 136.143C134.201 136.143 133.967 136.208 133.772 136.339C133.576 136.471 133.426 136.661 133.322 136.911V138.839C133.429 139.069 133.581 139.245 133.779 139.366C133.977 139.487 134.211 139.548 134.481 139.548C134.855 139.548 135.145 139.399 135.353 139.102C135.564 138.803 135.669 138.369 135.669 137.803Z" fill="#A0BF1D"/>
<path d="M139.045 139.849H138.599V134.145H139.045V139.849Z" fill="#A0BF1D"/>
<path d="M143.256 139.923C142.915 139.923 142.605 139.839 142.328 139.67C142.053 139.502 141.839 139.268 141.686 138.969C141.532 138.667 141.455 138.329 141.455 137.955V137.795C141.455 137.409 141.53 137.061 141.678 136.752C141.829 136.442 142.038 136.2 142.306 136.024C142.573 135.846 142.863 135.757 143.175 135.757C143.662 135.757 144.048 135.924 144.333 136.258C144.62 136.59 144.764 137.044 144.764 137.621V137.869H141.897V137.955C141.897 138.41 142.027 138.79 142.287 139.095C142.549 139.397 142.879 139.548 143.275 139.548C143.512 139.548 143.722 139.504 143.902 139.418C144.086 139.331 144.251 139.193 144.4 139.002L144.678 139.214C144.352 139.686 143.878 139.923 143.256 139.923ZM143.175 136.135C142.84 136.135 142.558 136.258 142.328 136.503C142.1 136.748 141.962 137.077 141.912 137.491H144.322V137.442C144.31 137.056 144.199 136.742 143.991 136.499C143.784 136.257 143.511 136.135 143.175 136.135Z" fill="#A0BF1D"/>
<path d="M147.479 135.831L147.494 136.484C147.642 136.242 147.828 136.06 148.051 135.938C148.273 135.817 148.521 135.757 148.793 135.757C149.427 135.757 149.829 136.016 150 136.536C150.144 136.286 150.336 136.094 150.576 135.961C150.816 135.825 151.081 135.757 151.37 135.757C152.232 135.757 152.671 136.227 152.689 137.168V139.849H152.243V137.201C152.24 136.842 152.162 136.576 152.009 136.403C151.858 136.229 151.61 136.143 151.266 136.143C150.947 136.148 150.677 136.252 150.457 136.455C150.236 136.655 150.114 136.9 150.089 137.19V139.849H149.644V137.168C149.641 136.823 149.559 136.567 149.399 136.399C149.24 136.228 148.995 136.143 148.663 136.143C148.384 136.143 148.143 136.223 147.943 136.384C147.742 136.542 147.594 136.779 147.497 137.093V139.849H147.052V135.831H147.479Z" fill="#A0BF1D"/>
<path d="M156.818 139.923C156.477 139.923 156.167 139.839 155.89 139.67C155.615 139.502 155.401 139.268 155.247 138.969C155.094 138.667 155.017 138.329 155.017 137.955V137.795C155.017 137.409 155.091 137.061 155.24 136.752C155.391 136.442 155.6 136.2 155.868 136.024C156.135 135.846 156.425 135.757 156.736 135.757C157.224 135.757 157.61 135.924 157.895 136.258C158.182 136.59 158.326 137.044 158.326 137.621V137.869H155.459V137.955C155.459 138.41 155.589 138.79 155.849 139.095C156.111 139.397 156.441 139.548 156.837 139.548C157.074 139.548 157.284 139.504 157.464 139.418C157.647 139.331 157.813 139.193 157.962 139.002L158.24 139.214C157.914 139.686 157.44 139.923 156.818 139.923ZM156.736 136.135C156.402 136.135 156.12 136.258 155.89 136.503C155.662 136.748 155.523 137.077 155.474 137.491H157.884V137.442C157.872 137.056 157.761 136.742 157.553 136.499C157.345 136.257 157.073 136.135 156.736 136.135Z" fill="#A0BF1D"/>
<path d="M161.059 135.831L161.074 136.518C161.225 136.27 161.413 136.082 161.639 135.953C161.864 135.822 162.113 135.757 162.385 135.757C162.816 135.757 163.136 135.878 163.347 136.12C163.557 136.363 163.664 136.727 163.666 137.212V139.849H163.224V137.208C163.222 136.849 163.145 136.582 162.994 136.406C162.845 136.231 162.606 136.143 162.277 136.143C162.002 136.143 161.759 136.229 161.546 136.403C161.335 136.573 161.179 136.805 161.078 137.097V139.849H160.636V135.831H161.059Z" fill="#A0BF1D"/>
<path d="M166.953 134.802V135.831H167.785V136.195H166.953V138.872C166.953 139.095 166.992 139.261 167.072 139.37C167.153 139.478 167.288 139.533 167.476 139.533C167.551 139.533 167.671 139.521 167.836 139.496L167.855 139.86C167.739 139.902 167.58 139.923 167.38 139.923C167.075 139.923 166.854 139.835 166.715 139.659C166.576 139.481 166.507 139.22 166.507 138.876V136.195H165.768V135.831H166.507V134.802H166.953Z" fill="#A0BF1D"/>
<path d="M169.831 137.78C169.831 137.394 169.905 137.046 170.054 136.737C170.205 136.427 170.416 136.187 170.689 136.016C170.964 135.843 171.274 135.757 171.621 135.757C172.156 135.757 172.589 135.945 172.92 136.321C173.252 136.695 173.418 137.191 173.418 137.81V137.903C173.418 138.291 173.343 138.642 173.192 138.954C173.043 139.263 172.833 139.502 172.56 139.67C172.288 139.839 171.977 139.923 171.628 139.923C171.096 139.923 170.663 139.736 170.329 139.362C169.997 138.986 169.831 138.488 169.831 137.869V137.78ZM170.277 137.903C170.277 138.383 170.4 138.778 170.648 139.087C170.898 139.394 171.225 139.548 171.628 139.548C172.029 139.548 172.354 139.394 172.601 139.087C172.851 138.778 172.976 138.371 172.976 137.866V137.78C172.976 137.473 172.919 137.192 172.805 136.937C172.691 136.682 172.532 136.486 172.326 136.347C172.121 136.206 171.886 136.135 171.621 136.135C171.225 136.135 170.902 136.291 170.652 136.603C170.402 136.913 170.277 137.319 170.277 137.821V137.903Z" fill="#A0BF1D"/>
<path d="M178.19 138.827C178.19 138.607 178.101 138.43 177.923 138.296C177.747 138.163 177.481 138.059 177.124 137.984C176.768 137.908 176.491 137.821 176.293 137.725C176.097 137.626 175.951 137.505 175.854 137.364C175.76 137.223 175.713 137.052 175.713 136.852C175.713 136.535 175.846 136.274 176.111 136.068C176.376 135.86 176.715 135.757 177.128 135.757C177.576 135.757 177.935 135.868 178.205 136.091C178.477 136.311 178.613 136.599 178.613 136.956H178.168C178.168 136.721 178.069 136.525 177.871 136.369C177.675 136.213 177.428 136.135 177.128 136.135C176.836 136.135 176.601 136.201 176.423 136.332C176.247 136.461 176.159 136.629 176.159 136.837C176.159 137.038 176.232 137.194 176.378 137.305C176.527 137.414 176.795 137.514 177.184 137.606C177.575 137.697 177.867 137.795 178.06 137.899C178.256 138.003 178.401 138.128 178.495 138.274C178.589 138.42 178.636 138.597 178.636 138.805C178.636 139.144 178.498 139.415 178.224 139.618C177.951 139.821 177.595 139.923 177.154 139.923C176.686 139.923 176.306 139.81 176.014 139.585C175.724 139.357 175.58 139.07 175.58 138.723H176.025C176.043 138.983 176.151 139.186 176.352 139.332C176.555 139.476 176.822 139.548 177.154 139.548C177.464 139.548 177.714 139.48 177.904 139.344C178.095 139.207 178.19 139.035 178.19 138.827Z" fill="#A0BF1D"/>
<path d="M186.914 139.849C186.869 139.722 186.841 139.535 186.828 139.288C186.672 139.491 186.473 139.648 186.23 139.759C185.99 139.868 185.735 139.923 185.465 139.923C185.079 139.923 184.766 139.815 184.526 139.6C184.288 139.384 184.169 139.112 184.169 138.783C184.169 138.392 184.332 138.082 184.656 137.855C184.983 137.627 185.437 137.513 186.019 137.513H186.824V137.056C186.824 136.769 186.735 136.544 186.557 136.38C186.381 136.214 186.124 136.132 185.785 136.132C185.475 136.132 185.219 136.211 185.016 136.369C184.813 136.528 184.712 136.718 184.712 136.941L184.266 136.937C184.266 136.618 184.415 136.342 184.712 136.109C185.009 135.874 185.374 135.757 185.807 135.757C186.255 135.757 186.608 135.869 186.865 136.094C187.125 136.317 187.259 136.629 187.266 137.03V138.931C187.266 139.32 187.307 139.611 187.389 139.804V139.849H186.914ZM185.517 139.529C185.814 139.529 186.079 139.457 186.312 139.314C186.547 139.17 186.718 138.978 186.824 138.738V137.855H186.03C185.587 137.859 185.24 137.941 184.99 138.1C184.74 138.256 184.615 138.471 184.615 138.746C184.615 138.971 184.698 139.158 184.864 139.306C185.032 139.455 185.25 139.529 185.517 139.529Z" fill="#A0BF1D"/>
<path d="M189.721 137.803C189.721 137.174 189.86 136.676 190.137 136.31C190.417 135.941 190.796 135.757 191.273 135.757C191.821 135.757 192.236 135.974 192.521 136.41L192.543 135.831H192.959V139.767C192.959 140.284 192.814 140.694 192.525 140.996C192.235 141.298 191.843 141.449 191.348 141.449C191.068 141.449 190.801 141.386 190.546 141.26C190.293 141.136 190.094 140.97 189.948 140.762L190.197 140.495C190.511 140.881 190.885 141.074 191.318 141.074C191.689 141.074 191.979 140.964 192.187 140.743C192.395 140.526 192.503 140.222 192.51 139.834V139.329C192.225 139.725 191.811 139.923 191.266 139.923C190.801 139.923 190.427 139.737 190.145 139.366C189.862 138.995 189.721 138.493 189.721 137.862V137.803ZM190.171 137.881C190.171 138.393 190.273 138.798 190.479 139.095C190.684 139.389 190.974 139.537 191.348 139.537C191.895 139.537 192.282 139.292 192.51 138.801V136.934C192.406 136.676 192.256 136.481 192.061 136.347C191.865 136.211 191.63 136.143 191.355 136.143C190.981 136.143 190.69 136.29 190.483 136.585C190.275 136.877 190.171 137.309 190.171 137.881Z" fill="#A0BF1D"/>
<path d="M197.419 136.21C197.325 136.192 197.225 136.184 197.119 136.184C196.841 136.184 196.606 136.262 196.413 136.417C196.223 136.571 196.086 136.795 196.005 137.09V139.849H195.563V135.831H195.997L196.005 136.469C196.24 135.994 196.617 135.757 197.137 135.757C197.261 135.757 197.359 135.773 197.431 135.805L197.419 136.21Z" fill="#A0BF1D"/>
<path d="M200.06 139.849H199.614V135.831H200.06V139.849ZM200.29 134.189H200.829L199.971 135.229H199.581L200.29 134.189Z" fill="#A0BF1D"/>
<path d="M204.193 139.548C204.503 139.548 204.762 139.461 204.97 139.288C205.18 139.112 205.294 138.886 205.311 138.608H205.738C205.726 138.853 205.649 139.077 205.508 139.28C205.367 139.481 205.179 139.638 204.944 139.752C204.711 139.866 204.461 139.923 204.193 139.923C203.666 139.923 203.248 139.74 202.938 139.373C202.631 139.007 202.478 138.514 202.478 137.895V137.762C202.478 137.366 202.547 137.015 202.686 136.711C202.824 136.406 203.022 136.171 203.28 136.005C203.54 135.839 203.843 135.757 204.19 135.757C204.63 135.757 204.993 135.888 205.278 136.15C205.565 136.413 205.718 136.758 205.738 137.186H205.311C205.291 136.872 205.177 136.618 204.97 136.425C204.764 136.232 204.504 136.135 204.19 136.135C203.789 136.135 203.477 136.28 203.254 136.57C203.034 136.859 202.923 137.265 202.923 137.788V137.918C202.923 138.43 203.034 138.83 203.254 139.117C203.477 139.404 203.79 139.548 204.193 139.548Z" fill="#A0BF1D"/>
<path d="M207.829 137.78C207.829 137.394 207.903 137.046 208.052 136.737C208.203 136.427 208.415 136.187 208.687 136.016C208.962 135.843 209.272 135.757 209.619 135.757C210.154 135.757 210.587 135.945 210.919 136.321C211.25 136.695 211.416 137.191 211.416 137.81V137.903C211.416 138.291 211.341 138.642 211.19 138.954C211.041 139.263 210.831 139.502 210.559 139.67C210.286 139.839 209.976 139.923 209.626 139.923C209.094 139.923 208.661 139.736 208.327 139.362C207.995 138.986 207.829 138.488 207.829 137.869V137.78ZM208.275 137.903C208.275 138.383 208.399 138.778 208.646 139.087C208.896 139.394 209.223 139.548 209.626 139.548C210.028 139.548 210.352 139.394 210.599 139.087C210.849 138.778 210.974 138.371 210.974 137.866V137.78C210.974 137.473 210.917 137.192 210.804 136.937C210.69 136.682 210.53 136.486 210.325 136.347C210.119 136.206 209.884 136.135 209.619 136.135C209.223 136.135 208.9 136.291 208.65 136.603C208.4 136.913 208.275 137.319 208.275 137.821V137.903Z" fill="#A0BF1D"/>
<path d="M214.28 139.849H213.834V134.145H214.28V139.849Z" fill="#A0BF1D"/>
<path d="M219.471 139.849C219.427 139.722 219.398 139.535 219.386 139.288C219.23 139.491 219.031 139.648 218.788 139.759C218.548 139.868 218.293 139.923 218.023 139.923C217.637 139.923 217.324 139.815 217.084 139.6C216.846 139.384 216.727 139.112 216.727 138.783C216.727 138.392 216.889 138.082 217.214 137.855C217.54 137.627 217.995 137.513 218.576 137.513H219.382V137.056C219.382 136.769 219.293 136.544 219.115 136.38C218.939 136.214 218.682 136.132 218.343 136.132C218.033 136.132 217.777 136.211 217.574 136.369C217.371 136.528 217.269 136.718 217.269 136.941L216.824 136.937C216.824 136.618 216.972 136.342 217.269 136.109C217.566 135.874 217.932 135.757 218.365 135.757C218.813 135.757 219.166 135.869 219.423 136.094C219.683 136.317 219.817 136.629 219.824 137.03V138.931C219.824 139.32 219.865 139.611 219.947 139.804V139.849H219.471ZM218.075 139.529C218.372 139.529 218.637 139.457 218.87 139.314C219.105 139.17 219.276 138.978 219.382 138.738V137.855H218.588C218.144 137.859 217.798 137.941 217.548 138.1C217.298 138.256 217.173 138.471 217.173 138.746C217.173 138.971 217.256 139.158 217.422 139.306C217.59 139.455 217.808 139.529 218.075 139.529Z" fill="#A0BF1D"/>
<path d="M224.864 138.827C224.864 138.607 224.774 138.43 224.596 138.296C224.42 138.163 224.154 138.059 223.798 137.984C223.441 137.908 223.164 137.821 222.966 137.725C222.77 137.626 222.624 137.505 222.528 137.364C222.434 137.223 222.387 137.052 222.387 136.852C222.387 136.535 222.519 136.274 222.784 136.068C223.049 135.86 223.388 135.757 223.802 135.757C224.25 135.757 224.609 135.868 224.878 136.091C225.151 136.311 225.287 136.599 225.287 136.956H224.841C224.841 136.721 224.742 136.525 224.544 136.369C224.349 136.213 224.101 136.135 223.802 136.135C223.509 136.135 223.274 136.201 223.096 136.332C222.92 136.461 222.832 136.629 222.832 136.837C222.832 137.038 222.905 137.194 223.051 137.305C223.2 137.414 223.469 137.514 223.857 137.606C224.248 137.697 224.54 137.795 224.734 137.899C224.929 138.003 225.074 138.128 225.168 138.274C225.262 138.42 225.309 138.597 225.309 138.805C225.309 139.144 225.172 139.415 224.897 139.618C224.625 139.821 224.268 139.923 223.828 139.923C223.36 139.923 222.98 139.81 222.688 139.585C222.398 139.357 222.253 139.07 222.253 138.723H222.699C222.716 138.983 222.825 139.186 223.025 139.332C223.228 139.476 223.496 139.548 223.828 139.548C224.137 139.548 224.387 139.48 224.578 139.344C224.768 139.207 224.864 139.035 224.864 138.827Z" fill="#A0BF1D"/>
<path fill-rule="evenodd" clip-rule="evenodd" d="M89.7522 77.5334C96.0988 77.5334 101.245 72.386 101.245 66.0351C101.245 59.6842 96.0988 54.5369 89.7522 54.5369C83.4056 54.5369 78.2596 59.6842 78.2596 66.0351C78.2596 72.386 83.4056 77.5334 89.7522 77.5334ZM89.7522 79.0543C96.9394 79.0543 102.766 73.2254 102.766 66.0351C102.766 58.8448 96.9394 53.0159 89.7522 53.0159C82.565 53.0159 76.7386 58.8448 76.7386 66.0351C76.7386 73.2254 82.565 79.0543 89.7522 79.0543Z" fill="#A0BF1D"/>
<path fill-rule="evenodd" clip-rule="evenodd" d="M137.012 76.4616C146.006 76.4616 153.299 69.1668 153.299 60.1668C153.299 51.1668 146.006 43.872 137.012 43.872C128.017 43.872 120.725 51.1668 120.725 60.1668C120.725 69.1668 128.017 76.4616 137.012 76.4616ZM137.012 77.9825C146.847 77.9825 154.82 70.0061 154.82 60.1668C154.82 50.3274 146.847 42.351 137.012 42.351C127.177 42.351 119.204 50.3274 119.204 60.1668C119.204 70.0061 127.177 77.9825 137.012 77.9825Z" fill="#A0BF1D"/>
<path fill-rule="evenodd" clip-rule="evenodd" d="M111.094 36.3554L115.757 14.9952C115.973 14.6043 116.391 14.1973 117.058 13.8011C117.761 13.3836 118.686 13.0108 119.797 12.6939C122.018 12.0603 124.881 11.6779 127.948 11.5601C133.911 11.331 140.438 12.1085 144.312 13.8163L146.605 33.4203C146.64 33.7183 146.846 33.968 147.133 34.0577C148.102 34.3613 149.556 34.9552 150.751 35.7336C151.349 36.1228 151.85 36.5382 152.195 36.9604C152.54 37.3826 152.69 37.7621 152.69 38.1006C152.69 38.5303 152.576 38.7374 152.478 38.8448C152.373 38.9603 152.199 39.0561 151.919 39.1031C151.329 39.2021 150.541 39.0372 149.974 38.8207C149.946 38.8103 149.918 38.8014 149.89 38.7942L148.016 38.3173C147.777 38.2565 147.523 38.3154 147.335 38.4753C147.148 38.6352 147.049 38.8763 147.071 39.122L147.539 44.3675C147.577 44.7858 147.946 45.0947 148.365 45.0573C148.783 45.0199 149.092 44.6505 149.054 44.2322L148.681 40.0561L149.474 40.2577C150.158 40.5127 151.219 40.763 152.171 40.6031C152.672 40.5189 153.2 40.3107 153.603 39.8689C154.012 39.419 154.211 38.8153 154.211 38.1006C154.211 37.2947 153.853 36.5852 153.373 35.9981C152.893 35.411 152.253 34.8965 151.581 34.4592C150.426 33.7062 149.086 33.1228 148.059 32.763L145.773 13.2154C145.743 12.9562 145.582 12.7306 145.346 12.6179C141.199 10.6312 134.142 9.80009 127.889 10.0403C124.749 10.1609 121.756 10.5534 119.38 11.2312C118.192 11.57 117.134 11.987 116.281 12.4934C115.435 12.996 114.735 13.6203 114.353 14.399C114.326 14.4541 114.305 14.5122 114.292 14.5721L109.726 35.4872L99.9796 36.3891C98.6036 36.4968 96.7931 36.6046 94.785 36.7242L94.7848 36.7242L94.1796 36.7603C91.9326 36.8944 89.4817 37.0438 87.1611 37.2232C84.8433 37.4024 82.641 37.6126 80.8943 37.8698C80.022 37.9983 79.2479 38.1406 78.623 38.3009C78.0314 38.4526 77.4639 38.6458 77.096 38.9267C75.6559 40.0262 74.7269 41.6757 74.1436 43.5353C73.5594 45.3978 73.3034 47.5284 73.2495 49.6715C73.1417 53.957 73.8398 58.417 74.4742 61.1613C74.5688 61.5705 74.9772 61.8256 75.3864 61.731C75.7956 61.6364 76.0507 61.228 75.9561 60.8187C75.3412 58.1586 74.6664 53.8314 74.77 49.7097C74.8218 47.6492 75.0677 45.6713 75.5949 43.9905C76.123 42.3068 76.915 40.9784 78.0189 40.1357C78.1194 40.0589 78.4158 39.9243 79.0008 39.7742C79.5526 39.6327 80.2681 39.4994 81.1159 39.3745C82.8096 39.1251 84.97 38.9181 87.2784 38.7396C89.584 38.5614 92.0227 38.4127 94.2702 38.2786L94.8786 38.2423L94.8789 38.2423C96.8843 38.1229 98.7117 38.014 100.104 37.9051L100.104 37.9051L100.114 37.9041L110.421 36.9504C110.751 36.9199 111.023 36.6791 111.094 36.3554ZM118.315 13.497C117.895 13.497 117.554 13.8375 117.554 14.2575C117.554 14.6775 117.895 15.0179 118.315 15.0179H141.738C142.158 15.0179 142.499 14.6775 142.499 14.2575C142.499 13.8375 142.158 13.497 141.738 13.497H118.315ZM118.355 61.7494C118.775 61.7271 119.096 61.369 119.074 60.9496C119.052 60.5302 118.694 60.2083 118.274 60.2306L105.443 60.9142C105.108 57.6339 103.969 55.1864 102.311 53.4052C100.537 51.499 98.2258 50.4171 95.8399 49.8497C91.0943 48.7212 85.8832 49.5872 83.3895 50.2609C82.9841 50.3704 82.7442 50.7879 82.8537 51.1934C82.9633 51.5988 83.3808 51.8387 83.7862 51.7292C86.1632 51.0871 91.0919 50.284 95.4881 51.3294C97.6732 51.8491 99.6836 52.8148 101.198 54.4415C102.704 56.0598 103.777 58.3936 103.987 61.7603C104.013 62.1763 104.369 62.4945 104.787 62.4723L118.355 61.7494Z" fill="#A0BF1D"/>
<path fill-rule="evenodd" clip-rule="evenodd" d="M144.081 40.4853C141.942 39.9126 136.19 38.8748 129.611 41.3413C123.658 43.5728 120.138 49.0497 117.707 52.8322C117.386 53.3309 117.085 53.8001 116.799 54.2285C116.566 54.5779 116.094 54.6723 115.745 54.4392C115.395 54.2062 115.301 53.734 115.534 53.3846C115.801 52.9835 116.09 52.5323 116.402 52.0438C118.802 48.2939 122.61 42.3415 129.077 39.9171C136.058 37.3002 142.158 38.3959 144.475 39.0161C144.881 39.1248 145.121 39.5417 145.013 39.9474C144.904 40.3532 144.487 40.594 144.081 40.4853Z" fill="#A0BF1D"/>
<path fill-rule="evenodd" clip-rule="evenodd" d="M98.3463 22.8236C96.9672 22.2082 95.4237 22.5706 94.8565 22.8236L94.2367 21.4346C95.0395 21.0765 97.0575 20.583 98.9661 21.4346L98.3463 22.8236ZM97.3619 22.5876V36.799H95.8409V22.5876H97.3619Z" fill="#A0BF1D"/>
<path d="M35.4433 92.4442C58.5721 82.4827 111.778 69.0259 188.096 84.7644C197.404 86.684 202.338 87.6004 203.744 87.8542C204.303 87.9508 204.323 87.9587 203.744 87.8542C196.358 86.5787 94.8833 69.8451 35.4433 92.4442Z" fill="#A0BF1D"/>
</svg>
