<svg width="24" height="24" viewBox="0 0 24 24" fill="none" xmlns="http://www.w3.org/2000/svg">
<path d="M4.97396 5H6.96354V8H16.9115V5H18.901V10H20.8906V5C20.8906 3.9 19.9953 3 18.901 3H14.7428C14.325 1.84 13.2307 1 11.9375 1C10.6443 1 9.55 1.84 9.13219 3H4.97396C3.87969 3 2.98438 3.9 2.98438 5V19C2.98438 20.1 3.87969 21 4.97396 21H10.9427V19H4.97396V5ZM11.9375 3C12.4846 3 12.9323 3.45 12.9323 4C12.9323 4.55 12.4846 5 11.9375 5C11.3904 5 10.9427 4.55 10.9427 4C10.9427 3.45 11.3904 3 11.9375 3Z" fill="#485900"/>
<path d="M20.8906 11.5L15.4292 17L12.4349 14L10.9427 15.5L15.4292 20L22.3828 13L20.8906 11.5Z" fill="#485900"/>
</svg>
