<svg width="32" height="32" viewBox="0 0 32 32" xmlns="http://www.w3.org/2000/svg">
<path d="M21.1334 10.8533C21.6534 10.8533 22.1601 10.8933 22.6534 10.96C21.7467 7 17.5867 4 12.5867 4C6.92007 4 2.32007 7.84 2.32007 12.5733C2.32007 15.3067 3.8534 17.72 6.24007 19.2933L4.8934 22L8.5734 20.4133C9.36007 20.6933 10.1867 20.92 11.0667 21.04C10.9467 20.52 10.8801 19.9867 10.8801 19.4267C10.8667 14.7067 15.4667 10.8533 21.1334 10.8533ZM16.0001 7.85333C16.7067 7.85333 17.2801 8.42667 17.2801 9.13333C17.2801 9.84 16.7067 10.4133 16.0001 10.4133C15.2934 10.4133 14.7201 9.84 14.7201 9.13333C14.7201 8.42667 15.2934 7.85333 16.0001 7.85333ZM9.16007 10.4267C8.4534 10.4267 7.88007 9.85333 7.88007 9.14667C7.88007 8.44 8.4534 7.86667 9.16007 7.86667C9.86674 7.86667 10.4401 8.44 10.4401 9.14667C10.4401 9.85333 9.86674 10.4267 9.16007 10.4267Z" />
<path d="M29.6801 19.4267C29.6801 15.64 25.8535 12.5734 21.1335 12.5734C16.4135 12.5734 12.5868 15.64 12.5868 19.4267C12.5868 23.2134 16.4135 26.28 21.1335 26.28C21.9068 26.28 22.6535 26.1734 23.3601 26.0134L27.9735 28L26.3735 24.8C28.3735 23.5467 29.6801 21.6267 29.6801 19.4267ZM18.5601 19C17.8535 19 17.2801 18.4267 17.2801 17.72C17.2801 17.0134 17.8535 16.44 18.5601 16.44C19.2668 16.44 19.8401 17.0134 19.8401 17.72C19.8535 18.4267 19.2668 19 18.5601 19ZM23.6935 19C22.9868 19 22.4135 18.4267 22.4135 17.72C22.4135 17.0134 22.9868 16.44 23.6935 16.44C24.4001 16.44 24.9735 17.0134 24.9735 17.72C24.9735 18.4267 24.4001 19 23.6935 19Z" />
</svg>
